<svg xmlns="http://www.w3.org/2000/svg" xmlns:xlink="http://www.w3.org/1999/xlink" width="1095" zoomAndPan="magnify" viewBox="0 0 821.25 343.499995" height="458" preserveAspectRatio="xMidYMid meet" version="1.0"><defs><g/><clipPath id="c3499d36b9"><path d="M 451 2 L 603.589844 2 L 603.589844 83 L 451 83 Z M 451 2 " clip-rule="nonzero"/></clipPath><clipPath id="95f9ee0951"><path d="M 409 0 L 603.589844 0 L 603.589844 45 L 409 45 Z M 409 0 " clip-rule="nonzero"/></clipPath><clipPath id="5f69b647bf"><path d="M 474 2 L 603.589844 2 L 603.589844 115 L 474 115 Z M 474 2 " clip-rule="nonzero"/></clipPath><clipPath id="d1bdc15441"><path d="M 216.402344 69 L 447 69 L 447 175.992188 L 216.402344 175.992188 Z M 216.402344 69 " clip-rule="nonzero"/></clipPath></defs><g clip-path="url(#c3499d36b9)"><path fill="#004aad" d="M 451.90625 82.675781 L 468.882812 44.085938 L 603.371094 2.058594 Z M 451.90625 82.675781 " fill-opacity="1" fill-rule="nonzero"/></g><path fill="#000000" d="M 474.4375 52.304688 L 451.90625 82.675781 L 570.324219 14.9375 Z M 474.4375 52.304688 " fill-opacity="1" fill-rule="nonzero"/><g clip-path="url(#95f9ee0951)"><path fill="#38b6ff" d="M 468.882812 44.085938 L 603.371094 2.058594 L 409.257812 -0.03125 Z M 468.882812 44.085938 " fill-opacity="1" fill-rule="nonzero"/></g><g clip-path="url(#5f69b647bf)"><path fill="#38b6ff" d="M 474.4375 52.304688 L 603.371094 2.058594 L 486.851562 114.824219 Z M 474.4375 52.304688 " fill-opacity="1" fill-rule="nonzero"/></g><path fill="#38b6ff" d="M 474.4375 52.304688 L 451.90625 82.675781 L 477.734375 68.929688 Z M 474.4375 52.304688 " fill-opacity="1" fill-rule="nonzero"/><path fill="#38b6ff" d="M 447.414062 53.59375 L 301.070312 107.078125 L 444.242188 45.609375 C 446.425781 44.671875 448.949219 45.683594 449.886719 47.863281 C 450.824219 50.042969 449.816406 52.570312 447.632812 53.507812 C 447.566406 53.539062 447.480469 53.570312 447.414062 53.59375 " fill-opacity="1" fill-rule="nonzero"/><path fill="#38b6ff" d="M 468 97.847656 L 321.660156 151.332031 L 464.832031 89.867188 C 467.011719 88.929688 469.535156 89.9375 470.472656 92.117188 C 471.410156 94.300781 470.402344 96.824219 468.222656 97.761719 C 468.152344 97.789062 468.070312 97.824219 468 97.847656 " fill-opacity="1" fill-rule="nonzero"/><g clip-path="url(#d1bdc15441)"><path fill="#38b6ff" d="M 443.488281 78.210938 L 216.480469 176.066406 L 439.949219 70.378906 C 442.097656 69.367188 444.660156 70.28125 445.671875 72.429688 C 446.6875 74.570312 445.769531 77.132812 443.625 78.148438 C 443.585938 78.167969 443.527344 78.191406 443.488281 78.210938 " fill-opacity="1" fill-rule="nonzero"/></g><g fill="#ffffff" fill-opacity="1"><g transform="translate(41.293984, 257.715674)"><g><path d="M 70.984375 -79.546875 L 70.984375 0 L 66.109375 0 L 66.109375 -64.71875 L 66.40625 -70.375 L 64.890625 -64.53125 L 41.703125 -3.1875 L 36.703125 -3.1875 L 13.5 -64.53125 L 11.984375 -70.375 L 12.359375 -64.71875 L 12.359375 0 L 7.34375 0 L 7.34375 -79.546875 L 13.015625 -79.546875 L 38.625 -10.609375 L 39.171875 -8.140625 L 39.703125 -10.609375 L 65.4375 -79.546875 Z M 70.984375 -79.546875 "/></g></g></g><g fill="#ffffff" fill-opacity="1"><g transform="translate(123.176676, 257.715674)"><g><path d="M 8.5625 -24.640625 C 8.5625 -20.910156 9.265625 -17.394531 10.671875 -14.09375 C 12.078125 -10.800781 14.222656 -8.140625 17.109375 -6.109375 C 20.003906 -4.085938 23.640625 -3.078125 28.015625 -3.078125 C 31.554688 -3.078125 34.476562 -3.65625 36.78125 -4.8125 C 39.09375 -5.976562 40.921875 -7.363281 42.265625 -8.96875 C 43.617188 -10.582031 44.578125 -11.992188 45.140625 -13.203125 L 48.921875 -10.0625 C 47.398438 -7.570312 45.65625 -5.460938 43.6875 -3.734375 C 41.71875 -2.003906 39.445312 -0.707031 36.875 0.15625 C 34.300781 1.019531 31.25 1.453125 27.71875 1.453125 C 22.539062 1.453125 18.128906 0.25 14.484375 -2.15625 C 10.847656 -4.570312 8.097656 -7.804688 6.234375 -11.859375 C 4.367188 -15.921875 3.4375 -20.425781 3.4375 -25.375 C 3.4375 -30.1875 4.367188 -34.519531 6.234375 -38.375 C 8.097656 -42.238281 10.828125 -45.296875 14.421875 -47.546875 C 18.023438 -49.796875 22.378906 -50.921875 27.484375 -50.921875 C 31.972656 -50.921875 35.90625 -49.882812 39.28125 -47.8125 C 42.65625 -45.75 45.273438 -42.914062 47.140625 -39.3125 C 49.015625 -35.71875 49.953125 -31.59375 49.953125 -26.9375 C 49.953125 -26.570312 49.929688 -26.175781 49.890625 -25.75 C 49.847656 -25.332031 49.828125 -24.960938 49.828125 -24.640625 Z M 44.65625 -29.21875 C 44.570312 -31.632812 44 -34.175781 42.9375 -36.84375 C 41.875 -39.519531 40.101562 -41.78125 37.625 -43.625 C 35.15625 -45.476562 31.773438 -46.40625 27.484375 -46.40625 C 22.941406 -46.40625 19.351562 -45.507812 16.71875 -43.71875 C 14.09375 -41.925781 12.1875 -39.691406 11 -37.015625 C 9.8125 -34.347656 9.097656 -31.75 8.859375 -29.21875 Z M 44.65625 -29.21875 "/></g></g></g><g fill="#ffffff" fill-opacity="1"><g transform="translate(178.909927, 257.715674)"><g><path d="M 23.203125 -50.921875 C 25.367188 -50.921875 27.40625 -50.664062 29.3125 -50.15625 C 31.21875 -49.65625 32.914062 -49.035156 34.40625 -48.296875 C 35.894531 -47.554688 37.019531 -46.863281 37.78125 -46.21875 L 34.890625 -42.421875 C 34.046875 -43.222656 32.578125 -44.085938 30.484375 -45.015625 C 28.398438 -45.941406 26.03125 -46.40625 23.375 -46.40625 C 19.96875 -46.40625 17.054688 -45.679688 14.640625 -44.234375 C 12.234375 -42.785156 11.03125 -40.695312 11.03125 -37.96875 C 11.03125 -35.351562 12.242188 -33.257812 14.671875 -31.6875 C 17.097656 -30.125 20.242188 -28.84375 24.109375 -27.84375 C 27.035156 -27.113281 29.660156 -26.195312 31.984375 -25.09375 C 34.316406 -23.988281 36.15625 -22.507812 37.5 -20.65625 C 38.851562 -18.8125 39.53125 -16.382812 39.53125 -13.375 C 39.53125 -10.84375 39.023438 -8.648438 38.015625 -6.796875 C 37.015625 -4.953125 35.628906 -3.425781 33.859375 -2.21875 C 32.097656 -1.019531 30.070312 -0.109375 27.78125 0.515625 C 25.488281 1.140625 23.035156 1.453125 20.421875 1.453125 C 17.890625 1.453125 15.519531 1.160156 13.3125 0.578125 C 11.101562 -0.00390625 9.195312 -0.726562 7.59375 -1.59375 C 5.988281 -2.457031 4.742188 -3.253906 3.859375 -3.984375 L 6.875 -8.25 C 7.914062 -7.125 9.640625 -5.988281 12.046875 -4.84375 C 14.460938 -3.707031 17.316406 -3.140625 20.609375 -3.140625 C 24.546875 -3.140625 27.796875 -4.082031 30.359375 -5.96875 C 32.929688 -7.851562 34.21875 -10.300781 34.21875 -13.3125 C 34.21875 -15.601562 33.601562 -17.410156 32.375 -18.734375 C 31.15625 -20.066406 29.550781 -21.132812 27.5625 -21.9375 C 25.570312 -22.738281 23.472656 -23.398438 21.265625 -23.921875 C 19.140625 -24.484375 17.140625 -25.132812 15.265625 -25.875 C 13.398438 -26.625 11.765625 -27.5625 10.359375 -28.6875 C 8.953125 -29.8125 7.847656 -31.144531 7.046875 -32.6875 C 6.242188 -34.238281 5.84375 -36.035156 5.84375 -38.078125 C 5.84375 -40.648438 6.625 -42.890625 8.1875 -44.796875 C 9.757812 -46.703125 11.867188 -48.195312 14.515625 -49.28125 C 17.171875 -50.375 20.066406 -50.921875 23.203125 -50.921875 Z M 23.203125 -50.921875 "/></g></g></g><g fill="#ffffff" fill-opacity="1"><g transform="translate(225.063085, 257.715674)"><g><path d="M 23.203125 -50.921875 C 25.367188 -50.921875 27.40625 -50.664062 29.3125 -50.15625 C 31.21875 -49.65625 32.914062 -49.035156 34.40625 -48.296875 C 35.894531 -47.554688 37.019531 -46.863281 37.78125 -46.21875 L 34.890625 -42.421875 C 34.046875 -43.222656 32.578125 -44.085938 30.484375 -45.015625 C 28.398438 -45.941406 26.03125 -46.40625 23.375 -46.40625 C 19.96875 -46.40625 17.054688 -45.679688 14.640625 -44.234375 C 12.234375 -42.785156 11.03125 -40.695312 11.03125 -37.96875 C 11.03125 -35.351562 12.242188 -33.257812 14.671875 -31.6875 C 17.097656 -30.125 20.242188 -28.84375 24.109375 -27.84375 C 27.035156 -27.113281 29.660156 -26.195312 31.984375 -25.09375 C 34.316406 -23.988281 36.15625 -22.507812 37.5 -20.65625 C 38.851562 -18.8125 39.53125 -16.382812 39.53125 -13.375 C 39.53125 -10.84375 39.023438 -8.648438 38.015625 -6.796875 C 37.015625 -4.953125 35.628906 -3.425781 33.859375 -2.21875 C 32.097656 -1.019531 30.070312 -0.109375 27.78125 0.515625 C 25.488281 1.140625 23.035156 1.453125 20.421875 1.453125 C 17.890625 1.453125 15.519531 1.160156 13.3125 0.578125 C 11.101562 -0.00390625 9.195312 -0.726562 7.59375 -1.59375 C 5.988281 -2.457031 4.742188 -3.253906 3.859375 -3.984375 L 6.875 -8.25 C 7.914062 -7.125 9.640625 -5.988281 12.046875 -4.84375 C 14.460938 -3.707031 17.316406 -3.140625 20.609375 -3.140625 C 24.546875 -3.140625 27.796875 -4.082031 30.359375 -5.96875 C 32.929688 -7.851562 34.21875 -10.300781 34.21875 -13.3125 C 34.21875 -15.601562 33.601562 -17.410156 32.375 -18.734375 C 31.15625 -20.066406 29.550781 -21.132812 27.5625 -21.9375 C 25.570312 -22.738281 23.472656 -23.398438 21.265625 -23.921875 C 19.140625 -24.484375 17.140625 -25.132812 15.265625 -25.875 C 13.398438 -26.625 11.765625 -27.5625 10.359375 -28.6875 C 8.953125 -29.8125 7.847656 -31.144531 7.046875 -32.6875 C 6.242188 -34.238281 5.84375 -36.035156 5.84375 -38.078125 C 5.84375 -40.648438 6.625 -42.890625 8.1875 -44.796875 C 9.757812 -46.703125 11.867188 -48.195312 14.515625 -49.28125 C 17.171875 -50.375 20.066406 -50.921875 23.203125 -50.921875 Z M 23.203125 -50.921875 "/></g></g></g><g fill="#ffffff" fill-opacity="1"><g transform="translate(271.216253, 257.715674)"><g><path d="M 47.90625 0 L 47.90625 -10.71875 C 47.664062 -9.632812 46.738281 -8.109375 45.125 -6.140625 C 43.519531 -4.171875 41.289062 -2.410156 38.4375 -0.859375 C 35.59375 0.679688 32.203125 1.453125 28.265625 1.453125 C 23.835938 1.453125 19.734375 0.4375 15.953125 -1.59375 C 12.179688 -3.625 9.140625 -6.597656 6.828125 -10.515625 C 4.523438 -14.429688 3.375 -19.160156 3.375 -24.703125 C 3.375 -30.242188 4.523438 -34.972656 6.828125 -38.890625 C 9.140625 -42.804688 12.179688 -45.789062 15.953125 -47.84375 C 19.734375 -49.894531 23.835938 -50.921875 28.265625 -50.921875 C 32.160156 -50.921875 35.539062 -50.164062 38.40625 -48.65625 C 41.28125 -47.15625 43.539062 -45.445312 45.1875 -43.53125 C 46.832031 -41.625 47.738281 -40.03125 47.90625 -38.75 L 47.90625 -49.46875 L 52.84375 -49.46875 L 52.84375 0 Z M 8.4375 -24.703125 C 8.4375 -20.242188 9.398438 -16.40625 11.328125 -13.1875 C 13.253906 -9.976562 15.742188 -7.53125 18.796875 -5.84375 C 21.847656 -4.15625 25.039062 -3.3125 28.375 -3.3125 C 32.070312 -3.3125 35.367188 -4.175781 38.265625 -5.90625 C 41.160156 -7.632812 43.445312 -10.101562 45.125 -13.3125 C 46.8125 -16.53125 47.65625 -20.328125 47.65625 -24.703125 C 47.65625 -29.085938 46.8125 -32.882812 45.125 -36.09375 C 43.445312 -39.3125 41.160156 -41.789062 38.265625 -43.53125 C 35.367188 -45.28125 32.070312 -46.15625 28.375 -46.15625 C 25.039062 -46.15625 21.847656 -45.300781 18.796875 -43.59375 C 15.742188 -41.882812 13.253906 -39.421875 11.328125 -36.203125 C 9.398438 -32.992188 8.4375 -29.160156 8.4375 -24.703125 Z M 8.4375 -24.703125 "/></g></g></g><g fill="#ffffff" fill-opacity="1"><g transform="translate(332.552948, 257.715674)"><g><path d="M 29.21875 26.390625 C 25 26.390625 21.40625 25.925781 18.4375 25 C 15.46875 24.082031 13.007812 22.890625 11.0625 21.421875 C 9.113281 19.953125 7.632812 18.4375 6.625 16.875 L 10.84375 13.4375 C 11.488281 14.4375 12.453125 15.578125 13.734375 16.859375 C 15.023438 18.148438 16.882812 19.265625 19.3125 20.203125 C 21.738281 21.148438 25.023438 21.625 29.171875 21.625 C 33.265625 21.625 36.707031 20.671875 39.5 18.765625 C 42.289062 16.859375 44.390625 14.335938 45.796875 11.203125 C 47.203125 8.078125 47.90625 4.6875 47.90625 1.03125 L 47.90625 -0.84375 L 52.84375 -0.84375 L 52.84375 1.453125 C 52.84375 6.828125 51.773438 11.375 49.640625 15.09375 C 47.515625 18.8125 44.675781 21.625 41.125 23.53125 C 37.570312 25.4375 33.601562 26.390625 29.21875 26.390625 Z M 47.90625 0 L 47.90625 -10.71875 C 47.664062 -9.632812 46.738281 -8.109375 45.125 -6.140625 C 43.519531 -4.171875 41.289062 -2.410156 38.4375 -0.859375 C 35.59375 0.679688 32.203125 1.453125 28.265625 1.453125 C 23.835938 1.453125 19.734375 0.4375 15.953125 -1.59375 C 12.179688 -3.625 9.140625 -6.597656 6.828125 -10.515625 C 4.523438 -14.429688 3.375 -19.160156 3.375 -24.703125 C 3.375 -30.242188 4.523438 -34.972656 6.828125 -38.890625 C 9.140625 -42.804688 12.179688 -45.789062 15.953125 -47.84375 C 19.734375 -49.894531 23.835938 -50.921875 28.265625 -50.921875 C 32.160156 -50.921875 35.539062 -50.164062 38.40625 -48.65625 C 41.28125 -47.15625 43.539062 -45.445312 45.1875 -43.53125 C 46.832031 -41.625 47.738281 -40.03125 47.90625 -38.75 L 47.90625 -49.46875 L 52.84375 -49.46875 L 52.84375 0 Z M 8.4375 -24.703125 C 8.4375 -20.242188 9.398438 -16.40625 11.328125 -13.1875 C 13.253906 -9.976562 15.742188 -7.53125 18.796875 -5.84375 C 21.847656 -4.15625 25.039062 -3.3125 28.375 -3.3125 C 32.070312 -3.3125 35.367188 -4.175781 38.265625 -5.90625 C 41.160156 -7.632812 43.445312 -10.101562 45.125 -13.3125 C 46.8125 -16.53125 47.65625 -20.328125 47.65625 -24.703125 C 47.65625 -29.085938 46.8125 -32.882812 45.125 -36.09375 C 43.445312 -39.3125 41.160156 -41.789062 38.265625 -43.53125 C 35.367188 -45.28125 32.070312 -46.15625 28.375 -46.15625 C 25.039062 -46.15625 21.847656 -45.300781 18.796875 -43.59375 C 15.742188 -41.882812 13.253906 -39.421875 11.328125 -36.203125 C 9.398438 -32.992188 8.4375 -29.160156 8.4375 -24.703125 Z M 8.4375 -24.703125 "/></g></g></g><g fill="#ffffff" fill-opacity="1"><g transform="translate(394.431921, 257.715674)"><g><path d="M 8.5625 -24.640625 C 8.5625 -20.910156 9.265625 -17.394531 10.671875 -14.09375 C 12.078125 -10.800781 14.222656 -8.140625 17.109375 -6.109375 C 20.003906 -4.085938 23.640625 -3.078125 28.015625 -3.078125 C 31.554688 -3.078125 34.476562 -3.65625 36.78125 -4.8125 C 39.09375 -5.976562 40.921875 -7.363281 42.265625 -8.96875 C 43.617188 -10.582031 44.578125 -11.992188 45.140625 -13.203125 L 48.921875 -10.0625 C 47.398438 -7.570312 45.65625 -5.460938 43.6875 -3.734375 C 41.71875 -2.003906 39.445312 -0.707031 36.875 0.15625 C 34.300781 1.019531 31.25 1.453125 27.71875 1.453125 C 22.539062 1.453125 18.128906 0.25 14.484375 -2.15625 C 10.847656 -4.570312 8.097656 -7.804688 6.234375 -11.859375 C 4.367188 -15.921875 3.4375 -20.425781 3.4375 -25.375 C 3.4375 -30.1875 4.367188 -34.519531 6.234375 -38.375 C 8.097656 -42.238281 10.828125 -45.296875 14.421875 -47.546875 C 18.023438 -49.796875 22.378906 -50.921875 27.484375 -50.921875 C 31.972656 -50.921875 35.90625 -49.882812 39.28125 -47.8125 C 42.65625 -45.75 45.273438 -42.914062 47.140625 -39.3125 C 49.015625 -35.71875 49.953125 -31.59375 49.953125 -26.9375 C 49.953125 -26.570312 49.929688 -26.175781 49.890625 -25.75 C 49.847656 -25.332031 49.828125 -24.960938 49.828125 -24.640625 Z M 44.65625 -29.21875 C 44.570312 -31.632812 44 -34.175781 42.9375 -36.84375 C 41.875 -39.519531 40.101562 -41.78125 37.625 -43.625 C 35.15625 -45.476562 31.773438 -46.40625 27.484375 -46.40625 C 22.941406 -46.40625 19.351562 -45.507812 16.71875 -43.71875 C 14.09375 -41.925781 12.1875 -39.691406 11 -37.015625 C 9.8125 -34.347656 9.097656 -31.75 8.859375 -29.21875 Z M 44.65625 -29.21875 "/></g></g></g><g fill="#ffffff" fill-opacity="1"><g transform="translate(450.175358, 257.715674)"><g><path d="M 45.25 -8.734375 C 50.195312 -8.734375 54.488281 -9.414062 58.125 -10.78125 C 61.757812 -12.144531 64.335938 -13.472656 65.859375 -14.765625 L 70.375 -5.90625 C 68.570312 -4.300781 65.429688 -2.671875 60.953125 -1.015625 C 56.472656 0.628906 51.097656 1.453125 44.828125 1.453125 C 38.960938 1.453125 33.519531 0.40625 28.5 -1.6875 C 23.476562 -3.78125 19.085938 -6.691406 15.328125 -10.421875 C 11.578125 -14.160156 8.644531 -18.519531 6.53125 -23.5 C 4.425781 -28.476562 3.375 -33.863281 3.375 -39.65625 C 3.375 -45.4375 4.414062 -50.835938 6.5 -55.859375 C 8.59375 -60.878906 11.515625 -65.265625 15.265625 -69.015625 C 19.023438 -72.773438 23.425781 -75.707031 28.46875 -77.8125 C 33.507812 -79.925781 38.960938 -80.984375 44.828125 -80.984375 C 51.097656 -80.984375 56.472656 -80.160156 60.953125 -78.515625 C 65.429688 -76.867188 68.570312 -75.242188 70.375 -73.640625 L 65.859375 -64.78125 C 64.335938 -66.101562 61.757812 -67.4375 58.125 -68.78125 C 54.488281 -70.125 50.195312 -70.796875 45.25 -70.796875 C 40.75 -70.796875 36.628906 -70.03125 32.890625 -68.5 C 29.160156 -66.976562 25.921875 -64.820312 23.171875 -62.03125 C 20.421875 -59.238281 18.289062 -55.953125 16.78125 -52.171875 C 15.269531 -48.398438 14.515625 -44.285156 14.515625 -39.828125 C 14.515625 -35.328125 15.269531 -31.175781 16.78125 -27.375 C 18.289062 -23.582031 20.421875 -20.289062 23.171875 -17.5 C 25.921875 -14.707031 29.160156 -12.546875 32.890625 -11.015625 C 36.628906 -9.492188 40.75 -8.734375 45.25 -8.734375 Z M 45.25 -8.734375 "/></g></g></g><g fill="#ffffff" fill-opacity="1"><g transform="translate(526.273836, 257.715674)"><g><path d="M 29.21875 1.453125 C 24.125 1.453125 19.597656 0.304688 15.640625 -1.984375 C 11.679688 -4.273438 8.578125 -7.378906 6.328125 -11.296875 C 4.078125 -15.210938 2.953125 -19.640625 2.953125 -24.578125 C 2.953125 -29.523438 4.078125 -33.984375 6.328125 -37.953125 C 8.578125 -41.929688 11.679688 -45.085938 15.640625 -47.421875 C 19.597656 -49.753906 24.125 -50.921875 29.21875 -50.921875 C 34.28125 -50.921875 38.769531 -49.753906 42.6875 -47.421875 C 46.601562 -45.085938 49.664062 -41.929688 51.875 -37.953125 C 54.09375 -33.984375 55.203125 -29.523438 55.203125 -24.578125 C 55.203125 -19.640625 54.09375 -15.210938 51.875 -11.296875 C 49.664062 -7.378906 46.601562 -4.273438 42.6875 -1.984375 C 38.769531 0.304688 34.28125 1.453125 29.21875 1.453125 Z M 29.21875 -7.53125 C 32.4375 -7.53125 35.238281 -8.269531 37.625 -9.75 C 40.019531 -11.238281 41.878906 -13.28125 43.203125 -15.875 C 44.523438 -18.46875 45.1875 -21.390625 45.1875 -24.640625 C 45.1875 -27.898438 44.523438 -30.832031 43.203125 -33.4375 C 41.878906 -36.050781 40.019531 -38.117188 37.625 -39.640625 C 35.238281 -41.171875 32.4375 -41.9375 29.21875 -41.9375 C 25.96875 -41.9375 23.132812 -41.171875 20.71875 -39.640625 C 18.3125 -38.117188 16.4375 -36.050781 15.09375 -33.4375 C 13.75 -30.832031 13.078125 -27.898438 13.078125 -24.640625 C 13.078125 -21.390625 13.75 -18.46875 15.09375 -15.875 C 16.4375 -13.28125 18.3125 -11.238281 20.71875 -9.75 C 23.132812 -8.269531 25.96875 -7.53125 29.21875 -7.53125 Z M 29.21875 -7.53125 "/></g></g></g><g fill="#ffffff" fill-opacity="1"><g transform="translate(586.706755, 257.715674)"><g><path d="M 16.9375 25.0625 L 6.515625 25.0625 L 6.515625 -49.46875 L 17.109375 -49.46875 L 17.109375 -40.1875 C 17.472656 -41.4375 18.476562 -42.90625 20.125 -44.59375 C 21.769531 -46.28125 23.988281 -47.753906 26.78125 -49.015625 C 29.570312 -50.285156 32.773438 -50.921875 36.390625 -50.921875 C 40.972656 -50.921875 45.039062 -49.820312 48.59375 -47.625 C 52.15625 -45.4375 54.945312 -42.382812 56.96875 -38.46875 C 59 -34.550781 60.015625 -29.960938 60.015625 -24.703125 C 60.015625 -19.441406 58.96875 -14.851562 56.875 -10.9375 C 54.789062 -7.019531 51.953125 -3.972656 48.359375 -1.796875 C 44.765625 0.367188 40.65625 1.453125 36.03125 1.453125 C 32.300781 1.453125 29.035156 0.75 26.234375 -0.65625 C 23.441406 -2.0625 21.253906 -3.648438 19.671875 -5.421875 C 18.085938 -7.191406 17.175781 -8.597656 16.9375 -9.640625 Z M 49.65625 -24.703125 C 49.65625 -28.273438 48.921875 -31.367188 47.453125 -33.984375 C 45.984375 -36.597656 44.039062 -38.625 41.625 -40.0625 C 39.21875 -41.507812 36.613281 -42.234375 33.8125 -42.234375 C 30.71875 -42.234375 27.90625 -41.5 25.375 -40.03125 C 22.84375 -38.570312 20.832031 -36.523438 19.34375 -33.890625 C 17.851562 -31.265625 17.109375 -28.203125 17.109375 -24.703125 C 17.109375 -21.210938 17.851562 -18.148438 19.34375 -15.515625 C 20.832031 -12.878906 22.84375 -10.835938 25.375 -9.390625 C 27.90625 -7.953125 30.71875 -7.234375 33.8125 -7.234375 C 36.613281 -7.234375 39.21875 -7.945312 41.625 -9.375 C 44.039062 -10.800781 45.984375 -12.816406 47.453125 -15.421875 C 48.921875 -18.035156 49.65625 -21.128906 49.65625 -24.703125 Z M 49.65625 -24.703125 "/></g></g></g><g fill="#ffffff" fill-opacity="1"><g transform="translate(651.297076, 257.715674)"><g><path d="M 7.46875 0 L 7.46875 -49.46875 L 17.953125 -49.46875 L 17.953125 0 Z M 12.828125 -66.40625 C 10.941406 -66.40625 9.328125 -67.078125 7.984375 -68.421875 C 6.640625 -69.765625 5.96875 -71.382812 5.96875 -73.28125 C 5.96875 -75.164062 6.640625 -76.789062 7.984375 -78.15625 C 9.328125 -79.519531 10.941406 -80.203125 12.828125 -80.203125 C 14.078125 -80.203125 15.234375 -79.878906 16.296875 -79.234375 C 17.359375 -78.597656 18.210938 -77.765625 18.859375 -76.734375 C 19.503906 -75.710938 19.828125 -74.5625 19.828125 -73.28125 C 19.828125 -71.382812 19.144531 -69.765625 17.78125 -68.421875 C 16.414062 -67.078125 14.765625 -66.40625 12.828125 -66.40625 Z M 12.828125 -66.40625 "/></g></g></g><g fill="#ffffff" fill-opacity="1"><g transform="translate(678.952825, 257.715674)"><g><path d="M 12.890625 -22.59375 C 12.929688 -19.625 13.570312 -16.910156 14.8125 -14.453125 C 16.0625 -12.003906 17.921875 -10.054688 20.390625 -8.609375 C 22.867188 -7.171875 25.914062 -6.453125 29.53125 -6.453125 C 32.582031 -6.453125 35.179688 -6.898438 37.328125 -7.796875 C 39.472656 -8.703125 41.226562 -9.785156 42.59375 -11.046875 C 43.96875 -12.316406 44.957031 -13.457031 45.5625 -14.46875 L 50.671875 -8.140625 C 49.347656 -6.210938 47.734375 -4.523438 45.828125 -3.078125 C 43.921875 -1.628906 41.597656 -0.515625 38.859375 0.265625 C 36.128906 1.054688 32.796875 1.453125 28.859375 1.453125 C 23.554688 1.453125 18.96875 0.316406 15.09375 -1.953125 C 11.21875 -4.222656 8.234375 -7.375 6.140625 -11.40625 C 4.054688 -15.445312 3.015625 -20.082031 3.015625 -25.3125 C 3.015625 -30.132812 4 -34.484375 5.96875 -38.359375 C 7.9375 -42.234375 10.796875 -45.296875 14.546875 -47.546875 C 18.304688 -49.796875 22.835938 -50.921875 28.140625 -50.921875 C 33.003906 -50.921875 37.234375 -49.90625 40.828125 -47.875 C 44.421875 -45.84375 47.210938 -42.976562 49.203125 -39.28125 C 51.191406 -35.59375 52.1875 -31.175781 52.1875 -26.03125 C 52.1875 -25.707031 52.164062 -25.132812 52.125 -24.3125 C 52.082031 -23.488281 52.039062 -22.914062 52 -22.59375 Z M 42.1875 -30.484375 C 42.144531 -32.140625 41.671875 -33.945312 40.765625 -35.90625 C 39.859375 -37.875 38.398438 -39.5625 36.390625 -40.96875 C 34.390625 -42.375 31.679688 -43.078125 28.265625 -43.078125 C 24.722656 -43.078125 21.878906 -42.394531 19.734375 -41.03125 C 17.585938 -39.664062 16.007812 -38.007812 15 -36.0625 C 14 -34.113281 13.414062 -32.253906 13.25 -30.484375 Z M 42.1875 -30.484375 "/></g></g></g><g fill="#ffffff" fill-opacity="1"><g transform="translate(736.373147, 257.715674)"><g><path d="M 16.625 0 L 6.203125 0 L 6.203125 -49.46875 L 16.625 -49.46875 L 16.625 -40.921875 L 16.328125 -40.921875 C 16.523438 -41.960938 17.265625 -43.265625 18.546875 -44.828125 C 19.835938 -46.398438 21.609375 -47.804688 23.859375 -49.046875 C 26.109375 -50.296875 28.800781 -50.921875 31.9375 -50.921875 C 34.226562 -50.921875 36.242188 -50.609375 37.984375 -49.984375 C 39.734375 -49.359375 40.972656 -48.742188 41.703125 -48.140625 L 37.421875 -39.46875 C 36.859375 -40.03125 35.875 -40.601562 34.46875 -41.1875 C 33.0625 -41.769531 31.3125 -42.0625 29.21875 -42.0625 C 26.570312 -42.0625 24.300781 -41.238281 22.40625 -39.59375 C 20.519531 -37.945312 19.082031 -35.96875 18.09375 -33.65625 C 17.113281 -31.34375 16.625 -29.203125 16.625 -27.234375 Z M 16.625 0 "/></g></g></g></svg>