<svg xmlns="http://www.w3.org/2000/svg" xmlns:xlink="http://www.w3.org/1999/xlink" width="1134" zoomAndPan="magnify" viewBox="0 0 850.5 330.749987" height="441" preserveAspectRatio="xMidYMid meet" version="1.0"><defs><g/><clipPath id="1c2d3390f7"><path d="M 327 0 L 522.929688 0 L 522.929688 144.640625 L 327 144.640625 Z M 327 0 " clip-rule="nonzero"/></clipPath></defs><path fill="#5271ff" d="M 424.839844 125.875 C 464.394531 125.875 489.988281 107.261719 489.988281 107.261719 C 489.988281 107.261719 483.007812 123.550781 462.070312 130.53125 L 469.050781 142.164062 C 505.148438 141 520.238281 116.902344 520.238281 116.902344 C 520.238281 63.386719 496.714844 20.011719 496.714844 20.011719 C 473.191406 2.0625 450.8125 2.5625 450.8125 2.5625 L 448.109375 4.886719 C 475.878906 13.527344 487.664062 28.152344 487.664062 28.152344 C 470.675781 18.679688 450.433594 11.867188 424.839844 11.867188 C 399.246094 11.867188 379.007812 18.679688 362.019531 28.152344 C 362.019531 28.152344 373.804688 13.527344 401.574219 4.886719 L 398.867188 2.5625 C 398.867188 2.5625 376.488281 2.0625 352.964844 20.011719 C 352.964844 20.011719 329.441406 63.390625 329.441406 116.902344 C 329.441406 116.902344 344.53125 141 380.632812 142.164062 L 387.609375 130.53125 C 366.671875 123.550781 359.691406 107.261719 359.691406 107.261719 C 359.691406 107.261719 385.285156 125.875 424.839844 125.875 Z M 424.839844 125.875 " fill-opacity="1" fill-rule="nonzero"/><path fill="#ffffff" d="M 471.375 83.996094 C 471.375 84.605469 471.347656 85.210938 471.292969 85.820312 C 471.234375 86.425781 471.152344 87.027344 471.039062 87.625 C 470.929688 88.222656 470.789062 88.816406 470.625 89.398438 C 470.457031 89.980469 470.265625 90.554688 470.046875 91.117188 C 469.828125 91.679688 469.585938 92.230469 469.316406 92.769531 C 469.046875 93.308594 468.753906 93.828125 468.433594 94.335938 C 468.117188 94.84375 467.777344 95.332031 467.414062 95.804688 C 467.050781 96.273438 466.667969 96.726562 466.265625 97.15625 C 465.859375 97.589844 465.4375 97.996094 464.996094 98.382812 C 464.554688 98.769531 464.09375 99.132812 463.621094 99.472656 C 463.144531 99.808594 462.65625 100.125 462.152344 100.410156 C 461.648438 100.699219 461.132812 100.957031 460.601562 101.191406 C 460.074219 101.425781 459.539062 101.628906 458.992188 101.808594 C 458.445312 101.984375 457.890625 102.132812 457.328125 102.25 C 456.769531 102.371094 456.203125 102.460938 455.636719 102.519531 C 455.066406 102.578125 454.496094 102.609375 453.925781 102.609375 C 453.355469 102.609375 452.785156 102.578125 452.214844 102.519531 C 451.644531 102.460938 451.082031 102.371094 450.519531 102.25 C 449.960938 102.132812 449.40625 101.984375 448.859375 101.808594 C 448.3125 101.628906 447.773438 101.425781 447.246094 101.191406 C 446.71875 100.957031 446.203125 100.699219 445.699219 100.410156 C 445.195312 100.125 444.707031 99.808594 444.230469 99.472656 C 443.753906 99.132812 443.296875 98.769531 442.855469 98.382812 C 442.414062 97.996094 441.988281 97.589844 441.585938 97.15625 C 441.183594 96.726562 440.796875 96.273438 440.4375 95.804688 C 440.074219 95.332031 439.734375 94.84375 439.414062 94.335938 C 439.097656 93.828125 438.804688 93.308594 438.535156 92.769531 C 438.265625 92.230469 438.023438 91.679688 437.804688 91.117188 C 437.585938 90.554688 437.390625 89.980469 437.226562 89.398438 C 437.058594 88.816406 436.921875 88.222656 436.808594 87.625 C 436.699219 87.027344 436.613281 86.425781 436.558594 85.820312 C 436.503906 85.210938 436.476562 84.605469 436.476562 83.996094 C 436.476562 83.386719 436.503906 82.777344 436.558594 82.171875 C 436.613281 81.5625 436.699219 80.960938 436.808594 80.363281 C 436.921875 79.765625 437.058594 79.175781 437.226562 78.589844 C 437.390625 78.007812 437.585938 77.433594 437.804688 76.871094 C 438.023438 76.308594 438.265625 75.757812 438.535156 75.21875 C 438.804688 74.683594 439.097656 74.160156 439.414062 73.652344 C 439.734375 73.148438 440.074219 72.65625 440.4375 72.1875 C 440.796875 71.714844 441.183594 71.265625 441.585938 70.832031 C 441.988281 70.402344 442.414062 69.992188 442.855469 69.605469 C 443.296875 69.21875 443.753906 68.855469 444.230469 68.519531 C 444.707031 68.179688 445.195312 67.867188 445.699219 67.578125 C 446.203125 67.292969 446.71875 67.03125 447.246094 66.796875 C 447.773438 66.566406 448.3125 66.359375 448.859375 66.183594 C 449.40625 66.003906 449.960938 65.859375 450.519531 65.738281 C 451.082031 65.621094 451.644531 65.53125 452.214844 65.472656 C 452.785156 65.410156 453.355469 65.382812 453.925781 65.382812 C 454.496094 65.382812 455.066406 65.410156 455.636719 65.472656 C 456.203125 65.53125 456.769531 65.621094 457.328125 65.738281 C 457.890625 65.859375 458.445312 66.003906 458.992188 66.183594 C 459.539062 66.359375 460.074219 66.566406 460.601562 66.796875 C 461.132812 67.03125 461.648438 67.292969 462.152344 67.578125 C 462.65625 67.867188 463.144531 68.179688 463.621094 68.519531 C 464.09375 68.855469 464.554688 69.21875 464.996094 69.605469 C 465.4375 69.992188 465.859375 70.402344 466.265625 70.832031 C 466.667969 71.265625 467.050781 71.714844 467.414062 72.1875 C 467.777344 72.65625 468.117188 73.148438 468.433594 73.652344 C 468.753906 74.160156 469.046875 74.683594 469.316406 75.21875 C 469.585938 75.757812 469.828125 76.308594 470.046875 76.871094 C 470.265625 77.433594 470.457031 78.007812 470.625 78.589844 C 470.789062 79.175781 470.929688 79.765625 471.039062 80.363281 C 471.152344 80.960938 471.234375 81.5625 471.292969 82.171875 C 471.347656 82.777344 471.375 83.386719 471.375 83.996094 Z M 471.375 83.996094 " fill-opacity="1" fill-rule="nonzero"/><path fill="#ffffff" d="M 413.207031 83.996094 C 413.207031 84.605469 413.179688 85.210938 413.125 85.820312 C 413.066406 86.425781 412.984375 87.027344 412.871094 87.625 C 412.761719 88.222656 412.621094 88.816406 412.457031 89.398438 C 412.289062 89.980469 412.097656 90.554688 411.878906 91.117188 C 411.660156 91.679688 411.417969 92.230469 411.148438 92.769531 C 410.878906 93.308594 410.585938 93.828125 410.265625 94.335938 C 409.949219 94.84375 409.609375 95.332031 409.246094 95.804688 C 408.882812 96.273438 408.5 96.726562 408.097656 97.15625 C 407.691406 97.589844 407.269531 97.996094 406.828125 98.382812 C 406.386719 98.769531 405.925781 99.132812 405.453125 99.472656 C 404.976562 99.808594 404.488281 100.125 403.984375 100.410156 C 403.480469 100.699219 402.964844 100.957031 402.433594 101.191406 C 401.90625 101.425781 401.371094 101.628906 400.824219 101.808594 C 400.277344 101.984375 399.722656 102.132812 399.160156 102.25 C 398.601562 102.371094 398.035156 102.460938 397.46875 102.519531 C 396.898438 102.578125 396.328125 102.609375 395.757812 102.609375 C 395.183594 102.609375 394.617188 102.578125 394.046875 102.519531 C 393.476562 102.460938 392.914062 102.371094 392.351562 102.25 C 391.792969 102.132812 391.238281 101.984375 390.691406 101.808594 C 390.144531 101.628906 389.605469 101.425781 389.078125 101.191406 C 388.550781 100.957031 388.035156 100.699219 387.53125 100.410156 C 387.027344 100.125 386.539062 99.808594 386.0625 99.472656 C 385.585938 99.132812 385.128906 98.769531 384.6875 98.382812 C 384.246094 97.996094 383.820312 97.589844 383.417969 97.15625 C 383.011719 96.726562 382.628906 96.273438 382.265625 95.804688 C 381.90625 95.332031 381.566406 94.84375 381.246094 94.335938 C 380.929688 93.828125 380.636719 93.308594 380.367188 92.769531 C 380.097656 92.230469 379.851562 91.679688 379.636719 91.117188 C 379.417969 90.554688 379.222656 89.980469 379.058594 89.398438 C 378.890625 88.816406 378.753906 88.222656 378.640625 87.625 C 378.53125 87.027344 378.445312 86.425781 378.390625 85.820312 C 378.335938 85.210938 378.304688 84.605469 378.304688 83.996094 C 378.304688 83.386719 378.335938 82.777344 378.390625 82.171875 C 378.445312 81.5625 378.53125 80.960938 378.640625 80.363281 C 378.753906 79.765625 378.890625 79.175781 379.058594 78.589844 C 379.222656 78.007812 379.417969 77.433594 379.636719 76.871094 C 379.851562 76.308594 380.097656 75.757812 380.367188 75.21875 C 380.636719 74.683594 380.929688 74.160156 381.246094 73.652344 C 381.566406 73.148438 381.90625 72.65625 382.265625 72.1875 C 382.628906 71.714844 383.011719 71.265625 383.417969 70.832031 C 383.820312 70.402344 384.246094 69.992188 384.6875 69.605469 C 385.128906 69.21875 385.585938 68.855469 386.0625 68.519531 C 386.539062 68.179688 387.027344 67.867188 387.53125 67.578125 C 388.035156 67.292969 388.550781 67.03125 389.078125 66.796875 C 389.605469 66.566406 390.144531 66.359375 390.691406 66.183594 C 391.238281 66.003906 391.792969 65.859375 392.351562 65.738281 C 392.914062 65.621094 393.476562 65.53125 394.046875 65.472656 C 394.617188 65.410156 395.183594 65.382812 395.757812 65.382812 C 396.328125 65.382812 396.898438 65.410156 397.46875 65.472656 C 398.035156 65.53125 398.601562 65.621094 399.160156 65.738281 C 399.722656 65.859375 400.277344 66.003906 400.824219 66.183594 C 401.371094 66.359375 401.90625 66.566406 402.433594 66.796875 C 402.964844 67.03125 403.480469 67.292969 403.984375 67.578125 C 404.488281 67.867188 404.976562 68.179688 405.453125 68.519531 C 405.925781 68.855469 406.386719 69.21875 406.828125 69.605469 C 407.269531 69.992188 407.691406 70.402344 408.097656 70.832031 C 408.5 71.265625 408.882812 71.714844 409.246094 72.1875 C 409.609375 72.65625 409.949219 73.148438 410.265625 73.652344 C 410.585938 74.160156 410.878906 74.683594 411.148438 75.21875 C 411.417969 75.757812 411.660156 76.308594 411.878906 76.871094 C 412.097656 77.433594 412.289062 78.007812 412.457031 78.589844 C 412.621094 79.175781 412.761719 79.765625 412.871094 80.363281 C 412.984375 80.960938 413.066406 81.5625 413.125 82.171875 C 413.179688 82.777344 413.207031 83.386719 413.207031 83.996094 Z M 413.207031 83.996094 " fill-opacity="1" fill-rule="nonzero"/><g clip-path="url(#1c2d3390f7)"><path fill="#ffffff" d="M 469.050781 144.488281 C 468.230469 144.488281 467.472656 144.0625 467.054688 143.363281 L 460.074219 131.726562 C 459.710938 131.121094 459.640625 130.386719 459.886719 129.722656 C 460.128906 129.0625 460.664062 128.546875 461.332031 128.320312 C 471.480469 124.9375 478.191406 119.257812 482.324219 114.519531 C 471.425781 120.164062 451.269531 128.203125 424.839844 128.203125 C 398.453125 128.203125 378.316406 120.191406 367.410156 114.546875 C 371.554688 119.285156 378.261719 124.960938 388.347656 128.320312 C 389.015625 128.542969 389.550781 129.058594 389.792969 129.722656 C 390.039062 130.386719 389.96875 131.121094 389.605469 131.726562 L 382.628906 143.363281 C 382.191406 144.085938 381.355469 144.535156 380.554688 144.488281 C 343.644531 143.296875 328.117188 119.164062 327.472656 118.136719 C 327.242188 117.765625 327.117188 117.339844 327.117188 116.902344 C 327.117188 63.414062 350.683594 19.339844 350.921875 18.902344 C 351.078125 18.613281 351.292969 18.359375 351.554688 18.164062 C 375.457031 -0.078125 397.960938 0.214844 398.917969 0.234375 C 399.453125 0.246094 399.972656 0.445312 400.378906 0.796875 L 403.085938 3.121094 C 403.726562 3.675781 404.019531 4.53125 403.847656 5.359375 C 403.675781 6.1875 403.070312 6.855469 402.261719 7.109375 C 392.046875 10.285156 384.054688 14.289062 378.066406 18.042969 C 392.871094 12.335938 408.3125 9.539062 424.839844 9.539062 C 441.34375 9.539062 456.765625 12.324219 471.542969 18.011719 C 465.550781 14.265625 457.570312 10.269531 447.417969 7.109375 C 446.609375 6.855469 446.003906 6.1875 445.828125 5.359375 C 445.660156 4.53125 445.949219 3.675781 446.589844 3.121094 L 449.296875 0.796875 C 449.703125 0.445312 450.222656 0.246094 450.761719 0.234375 C 451.710938 0.222656 474.214844 -0.0820312 498.125 18.164062 C 498.382812 18.359375 498.601562 18.613281 498.757812 18.902344 C 499 19.339844 522.5625 63.414062 522.5625 116.902344 C 522.5625 117.339844 522.441406 117.765625 522.210938 118.136719 C 521.566406 119.164062 506.039062 143.296875 469.125 144.488281 C 469.097656 144.488281 469.074219 144.488281 469.050781 144.488281 Z M 465.515625 131.753906 L 470.332031 139.78125 C 500.824219 138.269531 515.492188 119.570312 517.90625 116.183594 C 517.707031 66.992188 497.289062 26.167969 494.894531 21.550781 C 479.273438 9.773438 464.199219 6.316406 456.382812 5.300781 C 479.105469 14.078125 489.015625 26.132812 489.46875 26.691406 C 490.171875 27.558594 490.15625 28.800781 489.4375 29.652344 C 488.71875 30.503906 487.496094 30.726562 486.523438 30.183594 C 467.230469 19.425781 447.050781 14.191406 424.839844 14.191406 C 402.628906 14.191406 382.453125 19.425781 363.152344 30.1875 C 362.183594 30.730469 360.957031 30.503906 360.238281 29.652344 C 359.519531 28.800781 359.507812 27.5625 360.207031 26.695312 C 360.65625 26.132812 370.5625 14.089844 393.253906 5.320312 C 385.414062 6.351562 370.324219 9.832031 354.785156 21.550781 C 352.390625 26.175781 331.96875 67.042969 331.773438 116.1875 C 334.183594 119.574219 348.855469 138.269531 379.347656 139.78125 L 384.160156 131.757812 C 364.574219 124.113281 357.839844 108.855469 357.550781 108.179688 C 357.136719 107.21875 357.417969 106.101562 358.234375 105.449219 C 359.054688 104.792969 360.210938 104.769531 361.054688 105.382812 C 361.308594 105.5625 386.574219 123.550781 424.839844 123.550781 C 463.105469 123.550781 488.371094 105.5625 488.621094 105.378906 C 489.46875 104.765625 490.625 104.792969 491.441406 105.445312 C 492.261719 106.097656 492.542969 107.214844 492.128906 108.179688 C 491.839844 108.855469 485.101562 124.113281 465.515625 131.753906 Z M 465.515625 131.753906 " fill-opacity="1" fill-rule="nonzero"/></g><path fill="#ffffff" d="M 453.925781 104.933594 C 443.019531 104.933594 434.148438 95.539062 434.148438 83.996094 C 434.148438 72.449219 443.019531 63.054688 453.925781 63.054688 C 464.832031 63.054688 473.703125 72.449219 473.703125 83.996094 C 473.703125 95.539062 464.832031 104.933594 453.925781 104.933594 Z M 453.925781 67.707031 C 445.585938 67.707031 438.800781 75.015625 438.800781 83.996094 C 438.800781 92.976562 445.585938 100.28125 453.925781 100.28125 C 462.265625 100.28125 469.050781 92.976562 469.050781 83.996094 C 469.050781 75.015625 462.265625 67.707031 453.925781 67.707031 Z M 453.925781 67.707031 " fill-opacity="1" fill-rule="nonzero"/><path fill="#ffffff" d="M 395.757812 104.933594 C 384.851562 104.933594 375.980469 95.539062 375.980469 83.996094 C 375.980469 72.449219 384.851562 63.054688 395.757812 63.054688 C 406.664062 63.054688 415.535156 72.449219 415.535156 83.996094 C 415.535156 95.539062 406.664062 104.933594 395.757812 104.933594 Z M 395.757812 67.707031 C 387.417969 67.707031 380.632812 75.015625 380.632812 83.996094 C 380.632812 92.976562 387.417969 100.28125 395.757812 100.28125 C 404.097656 100.28125 410.878906 92.976562 410.878906 83.996094 C 410.878906 75.015625 404.097656 67.707031 395.757812 67.707031 Z M 395.757812 67.707031 " fill-opacity="1" fill-rule="nonzero"/><path fill="#ffffff" d="M 481.847656 38.089844 C 481.65625 38.089844 481.460938 38.042969 481.285156 37.945312 C 480.847656 37.703125 480.40625 37.484375 479.964844 37.265625 L 478.980469 36.769531 C 478.410156 36.472656 478.191406 35.769531 478.488281 35.199219 C 478.789062 34.632812 479.5 34.410156 480.058594 34.707031 L 481 35.183594 C 481.472656 35.417969 481.941406 35.652344 482.40625 35.910156 C 482.96875 36.21875 483.175781 36.925781 482.863281 37.492188 C 482.652344 37.871094 482.253906 38.089844 481.847656 38.089844 Z M 481.847656 38.089844 " fill-opacity="1" fill-rule="nonzero"/><path fill="#ffffff" d="M 474.867188 34.539062 C 474.699219 34.539062 474.527344 34.503906 474.371094 34.429688 C 470.757812 32.726562 466.988281 31.207031 462.851562 29.773438 C 462.242188 29.566406 461.925781 28.902344 462.132812 28.296875 C 462.339844 27.691406 463.007812 27.371094 463.613281 27.578125 C 467.828125 29.03125 471.671875 30.585938 475.363281 32.324219 C 475.941406 32.601562 476.191406 33.292969 475.917969 33.871094 C 475.71875 34.292969 475.304688 34.539062 474.867188 34.539062 Z M 474.867188 34.539062 " fill-opacity="1" fill-rule="nonzero"/><path fill="#ffffff" d="M 367.835938 38.089844 C 367.425781 38.089844 367.027344 37.871094 366.816406 37.488281 C 366.507812 36.925781 366.714844 36.21875 367.277344 35.910156 C 385.324219 25.992188 404.152344 21.171875 424.839844 21.171875 C 436.710938 21.171875 447.855469 22.777344 458.910156 26.074219 C 459.527344 26.257812 459.878906 26.902344 459.695312 27.519531 C 459.511719 28.136719 458.863281 28.492188 458.25 28.300781 C 447.40625 25.070312 436.480469 23.5 424.839844 23.5 C 404.554688 23.5 386.089844 28.226562 368.398438 37.945312 C 368.21875 38.042969 368.027344 38.089844 367.835938 38.089844 Z M 367.835938 38.089844 " fill-opacity="1" fill-rule="nonzero"/><g fill="#000000" fill-opacity="1"><g transform="translate(55.949594, 245.078286)"><g><path d="M 71.03125 -79.59375 L 71.03125 0 L 66.140625 0 L 66.140625 -64.765625 L 66.453125 -70.421875 L 64.9375 -64.578125 L 41.71875 -3.203125 L 36.71875 -3.203125 L 13.5 -64.578125 L 12 -70.421875 L 12.359375 -64.765625 L 12.359375 0 L 7.359375 0 L 7.359375 -79.59375 L 13.03125 -79.59375 L 38.65625 -10.609375 L 39.1875 -8.140625 L 39.734375 -10.609375 L 65.484375 -79.59375 Z M 71.03125 -79.59375 "/></g></g></g><g fill="#000000" fill-opacity="1"><g transform="translate(137.889537, 245.078286)"><g><path d="M 8.5625 -24.65625 C 8.5625 -20.914062 9.265625 -17.398438 10.671875 -14.109375 C 12.078125 -10.816406 14.226562 -8.15625 17.125 -6.125 C 20.019531 -4.09375 23.65625 -3.078125 28.03125 -3.078125 C 31.570312 -3.078125 34.5 -3.660156 36.8125 -4.828125 C 39.125 -5.992188 40.953125 -7.378906 42.296875 -8.984375 C 43.640625 -10.585938 44.59375 -11.992188 45.15625 -13.203125 L 48.96875 -10.0625 C 47.4375 -7.570312 45.6875 -5.460938 43.71875 -3.734375 C 41.75 -2.003906 39.476562 -0.707031 36.90625 0.15625 C 34.332031 1.019531 31.273438 1.453125 27.734375 1.453125 C 22.546875 1.453125 18.132812 0.25 14.5 -2.15625 C 10.863281 -4.570312 8.109375 -7.8125 6.234375 -11.875 C 4.367188 -15.9375 3.4375 -20.441406 3.4375 -25.390625 C 3.4375 -30.210938 4.367188 -34.550781 6.234375 -38.40625 C 8.109375 -42.269531 10.84375 -45.328125 14.4375 -47.578125 C 18.039062 -49.828125 22.394531 -50.953125 27.5 -50.953125 C 32 -50.953125 35.9375 -49.914062 39.3125 -47.84375 C 42.6875 -45.769531 45.304688 -42.9375 47.171875 -39.34375 C 49.046875 -35.75 49.984375 -31.617188 49.984375 -26.953125 C 49.984375 -26.585938 49.960938 -26.191406 49.921875 -25.765625 C 49.878906 -25.347656 49.859375 -24.976562 49.859375 -24.65625 Z M 44.6875 -29.25 C 44.601562 -31.65625 44.023438 -34.191406 42.953125 -36.859375 C 41.890625 -39.535156 40.125 -41.796875 37.65625 -43.640625 C 35.1875 -45.492188 31.800781 -46.421875 27.5 -46.421875 C 22.957031 -46.421875 19.367188 -45.523438 16.734375 -43.734375 C 14.097656 -41.953125 12.1875 -39.722656 11 -37.046875 C 9.8125 -34.378906 9.097656 -31.78125 8.859375 -29.25 Z M 44.6875 -29.25 "/></g></g></g><g fill="#000000" fill-opacity="1"><g transform="translate(193.661757, 245.078286)"><g><path d="M 23.21875 -50.953125 C 25.382812 -50.953125 27.421875 -50.695312 29.328125 -50.1875 C 31.242188 -49.6875 32.941406 -49.066406 34.421875 -48.328125 C 35.910156 -47.585938 37.039062 -46.894531 37.8125 -46.25 L 34.90625 -42.453125 C 34.0625 -43.253906 32.59375 -44.113281 30.5 -45.03125 C 28.414062 -45.957031 26.046875 -46.421875 23.390625 -46.421875 C 19.972656 -46.421875 17.054688 -45.695312 14.640625 -44.25 C 12.234375 -42.8125 11.03125 -40.722656 11.03125 -37.984375 C 11.03125 -35.367188 12.242188 -33.273438 14.671875 -31.703125 C 17.109375 -30.140625 20.257812 -28.859375 24.125 -27.859375 C 27.050781 -27.128906 29.679688 -26.210938 32.015625 -25.109375 C 34.347656 -24.003906 36.1875 -22.523438 37.53125 -20.671875 C 38.875 -18.828125 39.546875 -16.398438 39.546875 -13.390625 C 39.546875 -10.859375 39.046875 -8.664062 38.046875 -6.8125 C 37.046875 -4.96875 35.660156 -3.441406 33.890625 -2.234375 C 32.117188 -1.023438 30.085938 -0.109375 27.796875 0.515625 C 25.503906 1.140625 23.050781 1.453125 20.4375 1.453125 C 17.90625 1.453125 15.535156 1.160156 13.328125 0.578125 C 11.117188 -0.00390625 9.207031 -0.726562 7.59375 -1.59375 C 5.988281 -2.457031 4.742188 -3.253906 3.859375 -3.984375 L 6.875 -8.265625 C 7.914062 -7.140625 9.640625 -6.003906 12.046875 -4.859375 C 14.460938 -3.710938 17.320312 -3.140625 20.625 -3.140625 C 24.5625 -3.140625 27.816406 -4.082031 30.390625 -5.96875 C 32.960938 -7.851562 34.25 -10.304688 34.25 -13.328125 C 34.25 -15.617188 33.632812 -17.425781 32.40625 -18.75 C 31.1875 -20.070312 29.578125 -21.132812 27.578125 -21.9375 C 25.585938 -22.75 23.488281 -23.414062 21.28125 -23.9375 C 19.15625 -24.5 17.15625 -25.148438 15.28125 -25.890625 C 13.414062 -26.640625 11.78125 -27.578125 10.375 -28.703125 C 8.96875 -29.828125 7.859375 -31.160156 7.046875 -32.703125 C 6.242188 -34.253906 5.84375 -36.054688 5.84375 -38.109375 C 5.84375 -40.679688 6.625 -42.921875 8.1875 -44.828125 C 9.757812 -46.734375 11.875 -48.226562 14.53125 -49.3125 C 17.1875 -50.40625 20.082031 -50.953125 23.21875 -50.953125 Z M 23.21875 -50.953125 "/></g></g></g><g fill="#000000" fill-opacity="1"><g transform="translate(239.847185, 245.078286)"><g><path d="M 23.21875 -50.953125 C 25.382812 -50.953125 27.421875 -50.695312 29.328125 -50.1875 C 31.242188 -49.6875 32.941406 -49.066406 34.421875 -48.328125 C 35.910156 -47.585938 37.039062 -46.894531 37.8125 -46.25 L 34.90625 -42.453125 C 34.0625 -43.253906 32.59375 -44.113281 30.5 -45.03125 C 28.414062 -45.957031 26.046875 -46.421875 23.390625 -46.421875 C 19.972656 -46.421875 17.054688 -45.695312 14.640625 -44.25 C 12.234375 -42.8125 11.03125 -40.722656 11.03125 -37.984375 C 11.03125 -35.367188 12.242188 -33.273438 14.671875 -31.703125 C 17.109375 -30.140625 20.257812 -28.859375 24.125 -27.859375 C 27.050781 -27.128906 29.679688 -26.210938 32.015625 -25.109375 C 34.347656 -24.003906 36.1875 -22.523438 37.53125 -20.671875 C 38.875 -18.828125 39.546875 -16.398438 39.546875 -13.390625 C 39.546875 -10.859375 39.046875 -8.664062 38.046875 -6.8125 C 37.046875 -4.96875 35.660156 -3.441406 33.890625 -2.234375 C 32.117188 -1.023438 30.085938 -0.109375 27.796875 0.515625 C 25.503906 1.140625 23.050781 1.453125 20.4375 1.453125 C 17.90625 1.453125 15.535156 1.160156 13.328125 0.578125 C 11.117188 -0.00390625 9.207031 -0.726562 7.59375 -1.59375 C 5.988281 -2.457031 4.742188 -3.253906 3.859375 -3.984375 L 6.875 -8.265625 C 7.914062 -7.140625 9.640625 -6.003906 12.046875 -4.859375 C 14.460938 -3.710938 17.320312 -3.140625 20.625 -3.140625 C 24.5625 -3.140625 27.816406 -4.082031 30.390625 -5.96875 C 32.960938 -7.851562 34.25 -10.304688 34.25 -13.328125 C 34.25 -15.617188 33.632812 -17.425781 32.40625 -18.75 C 31.1875 -20.070312 29.578125 -21.132812 27.578125 -21.9375 C 25.585938 -22.75 23.488281 -23.414062 21.28125 -23.9375 C 19.15625 -24.5 17.15625 -25.148438 15.28125 -25.890625 C 13.414062 -26.640625 11.78125 -27.578125 10.375 -28.703125 C 8.96875 -29.828125 7.859375 -31.160156 7.046875 -32.703125 C 6.242188 -34.253906 5.84375 -36.054688 5.84375 -38.109375 C 5.84375 -40.679688 6.625 -42.921875 8.1875 -44.828125 C 9.757812 -46.734375 11.875 -48.226562 14.53125 -49.3125 C 17.1875 -50.40625 20.082031 -50.953125 23.21875 -50.953125 Z M 23.21875 -50.953125 "/></g></g></g><g fill="#000000" fill-opacity="1"><g transform="translate(286.032623, 245.078286)"><g><path d="M 47.9375 0 L 47.9375 -10.734375 C 47.695312 -9.648438 46.769531 -8.125 45.15625 -6.15625 C 43.550781 -4.1875 41.320312 -2.425781 38.46875 -0.875 C 35.613281 0.675781 32.21875 1.453125 28.28125 1.453125 C 23.851562 1.453125 19.75 0.4375 15.96875 -1.59375 C 12.195312 -3.625 9.15625 -6.597656 6.84375 -10.515625 C 4.53125 -14.441406 3.375 -19.175781 3.375 -24.71875 C 3.375 -30.269531 4.53125 -35.003906 6.84375 -38.921875 C 9.15625 -42.835938 12.195312 -45.820312 15.96875 -47.875 C 19.75 -49.925781 23.851562 -50.953125 28.28125 -50.953125 C 32.175781 -50.953125 35.5625 -50.195312 38.4375 -48.6875 C 41.3125 -47.175781 43.570312 -45.46875 45.21875 -43.5625 C 46.863281 -41.65625 47.769531 -40.054688 47.9375 -38.765625 L 47.9375 -49.5 L 52.875 -49.5 L 52.875 0 Z M 8.4375 -24.71875 C 8.4375 -20.257812 9.398438 -16.421875 11.328125 -13.203125 C 13.265625 -9.984375 15.757812 -7.53125 18.8125 -5.84375 C 21.863281 -4.15625 25.0625 -3.3125 28.40625 -3.3125 C 32.101562 -3.3125 35.394531 -4.175781 38.28125 -5.90625 C 41.175781 -7.632812 43.46875 -10.109375 45.15625 -13.328125 C 46.84375 -16.546875 47.6875 -20.34375 47.6875 -24.71875 C 47.6875 -29.101562 46.84375 -32.898438 45.15625 -36.109375 C 43.46875 -39.328125 41.175781 -41.8125 38.28125 -43.5625 C 35.394531 -45.3125 32.101562 -46.1875 28.40625 -46.1875 C 25.0625 -46.1875 21.863281 -45.332031 18.8125 -43.625 C 15.757812 -41.914062 13.265625 -39.453125 11.328125 -36.234375 C 9.398438 -33.023438 8.4375 -29.1875 8.4375 -24.71875 Z M 8.4375 -24.71875 "/></g></g></g><g fill="#000000" fill-opacity="1"><g transform="translate(347.412204, 245.078286)"><g><path d="M 29.25 26.40625 C 25.019531 26.40625 21.414062 25.941406 18.4375 25.015625 C 15.46875 24.097656 13.007812 22.90625 11.0625 21.4375 C 9.113281 19.96875 7.632812 18.453125 6.625 16.890625 L 10.859375 13.453125 C 11.492188 14.453125 12.453125 15.59375 13.734375 16.875 C 15.023438 18.164062 16.882812 19.28125 19.3125 20.21875 C 21.75 21.164062 25.039062 21.640625 29.1875 21.640625 C 33.28125 21.640625 36.722656 20.6875 39.515625 18.78125 C 42.316406 16.875 44.421875 14.351562 45.828125 11.21875 C 47.234375 8.082031 47.9375 4.6875 47.9375 1.03125 L 47.9375 -0.84375 L 52.875 -0.84375 L 52.875 1.453125 C 52.875 6.835938 51.804688 11.390625 49.671875 15.109375 C 47.546875 18.828125 44.703125 21.640625 41.140625 23.546875 C 37.585938 25.453125 33.625 26.40625 29.25 26.40625 Z M 47.9375 0 L 47.9375 -10.734375 C 47.695312 -9.648438 46.769531 -8.125 45.15625 -6.15625 C 43.550781 -4.1875 41.320312 -2.425781 38.46875 -0.875 C 35.613281 0.675781 32.21875 1.453125 28.28125 1.453125 C 23.851562 1.453125 19.75 0.4375 15.96875 -1.59375 C 12.195312 -3.625 9.15625 -6.597656 6.84375 -10.515625 C 4.53125 -14.441406 3.375 -19.175781 3.375 -24.71875 C 3.375 -30.269531 4.53125 -35.003906 6.84375 -38.921875 C 9.15625 -42.835938 12.195312 -45.820312 15.96875 -47.875 C 19.75 -49.925781 23.851562 -50.953125 28.28125 -50.953125 C 32.175781 -50.953125 35.5625 -50.195312 38.4375 -48.6875 C 41.3125 -47.175781 43.570312 -45.46875 45.21875 -43.5625 C 46.863281 -41.65625 47.769531 -40.054688 47.9375 -38.765625 L 47.9375 -49.5 L 52.875 -49.5 L 52.875 0 Z M 8.4375 -24.71875 C 8.4375 -20.257812 9.398438 -16.421875 11.328125 -13.203125 C 13.265625 -9.984375 15.757812 -7.53125 18.8125 -5.84375 C 21.863281 -4.15625 25.0625 -3.3125 28.40625 -3.3125 C 32.101562 -3.3125 35.394531 -4.175781 38.28125 -5.90625 C 41.175781 -7.632812 43.46875 -10.109375 45.15625 -13.328125 C 46.84375 -16.546875 47.6875 -20.34375 47.6875 -24.71875 C 47.6875 -29.101562 46.84375 -32.898438 45.15625 -36.109375 C 43.46875 -39.328125 41.175781 -41.8125 38.28125 -43.5625 C 35.394531 -45.3125 32.101562 -46.1875 28.40625 -46.1875 C 25.0625 -46.1875 21.863281 -45.332031 18.8125 -43.625 C 15.757812 -41.914062 13.265625 -39.453125 11.328125 -36.234375 C 9.398438 -33.023438 8.4375 -29.1875 8.4375 -24.71875 Z M 8.4375 -24.71875 "/></g></g></g><g fill="#000000" fill-opacity="1"><g transform="translate(409.334442, 245.078286)"><g><path d="M 8.5625 -24.65625 C 8.5625 -20.914062 9.265625 -17.398438 10.671875 -14.109375 C 12.078125 -10.816406 14.226562 -8.15625 17.125 -6.125 C 20.019531 -4.09375 23.65625 -3.078125 28.03125 -3.078125 C 31.570312 -3.078125 34.5 -3.660156 36.8125 -4.828125 C 39.125 -5.992188 40.953125 -7.378906 42.296875 -8.984375 C 43.640625 -10.585938 44.59375 -11.992188 45.15625 -13.203125 L 48.96875 -10.0625 C 47.4375 -7.570312 45.6875 -5.460938 43.71875 -3.734375 C 41.75 -2.003906 39.476562 -0.707031 36.90625 0.15625 C 34.332031 1.019531 31.273438 1.453125 27.734375 1.453125 C 22.546875 1.453125 18.132812 0.25 14.5 -2.15625 C 10.863281 -4.570312 8.109375 -7.8125 6.234375 -11.875 C 4.367188 -15.9375 3.4375 -20.441406 3.4375 -25.390625 C 3.4375 -30.210938 4.367188 -34.550781 6.234375 -38.40625 C 8.109375 -42.269531 10.84375 -45.328125 14.4375 -47.578125 C 18.039062 -49.828125 22.394531 -50.953125 27.5 -50.953125 C 32 -50.953125 35.9375 -49.914062 39.3125 -47.84375 C 42.6875 -45.769531 45.304688 -42.9375 47.171875 -39.34375 C 49.046875 -35.75 49.984375 -31.617188 49.984375 -26.953125 C 49.984375 -26.585938 49.960938 -26.191406 49.921875 -25.765625 C 49.878906 -25.347656 49.859375 -24.976562 49.859375 -24.65625 Z M 44.6875 -29.25 C 44.601562 -31.65625 44.023438 -34.191406 42.953125 -36.859375 C 41.890625 -39.535156 40.125 -41.796875 37.65625 -43.640625 C 35.1875 -45.492188 31.800781 -46.421875 27.5 -46.421875 C 22.957031 -46.421875 19.367188 -45.523438 16.734375 -43.734375 C 14.097656 -41.953125 12.1875 -39.722656 11 -37.046875 C 9.8125 -34.378906 9.097656 -31.78125 8.859375 -29.25 Z M 44.6875 -29.25 "/></g></g></g><g fill="#000000" fill-opacity="1"><g transform="translate(465.116855, 245.078286)"><g><path d="M 45.28125 -8.75 C 50.226562 -8.75 54.519531 -9.429688 58.15625 -10.796875 C 61.789062 -12.160156 64.375 -13.484375 65.90625 -14.765625 L 70.421875 -5.90625 C 68.617188 -4.300781 65.472656 -2.671875 60.984375 -1.015625 C 56.503906 0.628906 51.128906 1.453125 44.859375 1.453125 C 38.992188 1.453125 33.546875 0.40625 28.515625 -1.6875 C 23.492188 -3.78125 19.101562 -6.691406 15.34375 -10.421875 C 11.582031 -14.160156 8.644531 -18.523438 6.53125 -23.515625 C 4.425781 -28.503906 3.375 -33.890625 3.375 -39.671875 C 3.375 -45.460938 4.414062 -50.867188 6.5 -55.890625 C 8.59375 -60.921875 11.519531 -65.3125 15.28125 -69.0625 C 19.039062 -72.820312 23.441406 -75.753906 28.484375 -77.859375 C 33.535156 -79.972656 38.992188 -81.03125 44.859375 -81.03125 C 51.128906 -81.03125 56.503906 -80.207031 60.984375 -78.5625 C 65.472656 -76.914062 68.617188 -75.289062 70.421875 -73.6875 L 65.90625 -64.8125 C 64.375 -66.144531 61.789062 -67.484375 58.15625 -68.828125 C 54.519531 -70.171875 50.226562 -70.84375 45.28125 -70.84375 C 40.78125 -70.84375 36.660156 -70.078125 32.921875 -68.546875 C 29.179688 -67.023438 25.929688 -64.867188 23.171875 -62.078125 C 20.421875 -59.285156 18.289062 -56 16.78125 -52.21875 C 15.28125 -48.4375 14.53125 -44.316406 14.53125 -39.859375 C 14.53125 -35.359375 15.28125 -31.207031 16.78125 -27.40625 C 18.289062 -23.601562 20.421875 -20.304688 23.171875 -17.515625 C 25.929688 -14.722656 29.179688 -12.5625 32.921875 -11.03125 C 36.660156 -9.507812 40.78125 -8.75 45.28125 -8.75 Z M 45.28125 -8.75 "/></g></g></g><g fill="#000000" fill-opacity="1"><g transform="translate(541.26854, 245.078286)"><g><path d="M 29.25 1.453125 C 24.144531 1.453125 19.609375 0.304688 15.640625 -1.984375 C 11.679688 -4.273438 8.578125 -7.378906 6.328125 -11.296875 C 4.078125 -15.222656 2.953125 -19.65625 2.953125 -24.59375 C 2.953125 -29.539062 4.078125 -34.003906 6.328125 -37.984375 C 8.578125 -41.960938 11.679688 -45.117188 15.640625 -47.453125 C 19.609375 -49.785156 24.144531 -50.953125 29.25 -50.953125 C 34.3125 -50.953125 38.800781 -49.785156 42.71875 -47.453125 C 46.632812 -45.117188 49.695312 -41.960938 51.90625 -37.984375 C 54.125 -34.003906 55.234375 -29.539062 55.234375 -24.59375 C 55.234375 -19.65625 54.125 -15.222656 51.90625 -11.296875 C 49.695312 -7.378906 46.632812 -4.273438 42.71875 -1.984375 C 38.800781 0.304688 34.3125 1.453125 29.25 1.453125 Z M 29.25 -7.53125 C 32.457031 -7.53125 35.257812 -8.273438 37.65625 -9.765625 C 40.050781 -11.253906 41.910156 -13.296875 43.234375 -15.890625 C 44.554688 -18.484375 45.21875 -21.40625 45.21875 -24.65625 C 45.21875 -27.914062 44.554688 -30.851562 43.234375 -33.46875 C 41.910156 -36.082031 40.050781 -38.148438 37.65625 -39.671875 C 35.257812 -41.203125 32.457031 -41.96875 29.25 -41.96875 C 25.988281 -41.96875 23.148438 -41.203125 20.734375 -39.671875 C 18.328125 -38.148438 16.445312 -36.082031 15.09375 -33.46875 C 13.75 -30.851562 13.078125 -27.914062 13.078125 -24.65625 C 13.078125 -21.40625 13.75 -18.484375 15.09375 -15.890625 C 16.445312 -13.296875 18.328125 -11.253906 20.734375 -9.765625 C 23.148438 -8.273438 25.988281 -7.53125 29.25 -7.53125 Z M 29.25 -7.53125 "/></g></g></g><g fill="#000000" fill-opacity="1"><g transform="translate(601.743714, 245.078286)"><g><path d="M 16.9375 25.078125 L 6.515625 25.078125 L 6.515625 -49.5 L 17.125 -49.5 L 17.125 -40.21875 C 17.488281 -41.46875 18.492188 -42.9375 20.140625 -44.625 C 21.785156 -46.3125 24.003906 -47.785156 26.796875 -49.046875 C 29.597656 -50.316406 32.804688 -50.953125 36.421875 -50.953125 C 41.003906 -50.953125 45.070312 -49.851562 48.625 -47.65625 C 52.1875 -45.46875 54.984375 -42.414062 57.015625 -38.5 C 59.046875 -34.582031 60.0625 -29.988281 60.0625 -24.71875 C 60.0625 -19.457031 59.015625 -14.863281 56.921875 -10.9375 C 54.828125 -7.019531 51.976562 -3.972656 48.375 -1.796875 C 44.78125 0.367188 40.675781 1.453125 36.0625 1.453125 C 32.320312 1.453125 29.050781 0.75 26.25 -0.65625 C 23.457031 -2.070312 21.269531 -3.660156 19.6875 -5.421875 C 18.101562 -7.191406 17.1875 -8.597656 16.9375 -9.640625 Z M 49.6875 -24.71875 C 49.6875 -28.300781 48.953125 -31.394531 47.484375 -34 C 46.015625 -36.613281 44.070312 -38.644531 41.65625 -40.09375 C 39.25 -41.539062 36.640625 -42.265625 33.828125 -42.265625 C 30.734375 -42.265625 27.921875 -41.53125 25.390625 -40.0625 C 22.859375 -38.59375 20.847656 -36.539062 19.359375 -33.90625 C 17.867188 -31.28125 17.125 -28.21875 17.125 -24.71875 C 17.125 -21.21875 17.867188 -18.148438 19.359375 -15.515625 C 20.847656 -12.890625 22.859375 -10.851562 25.390625 -9.40625 C 27.921875 -7.957031 30.734375 -7.234375 33.828125 -7.234375 C 36.640625 -7.234375 39.25 -7.945312 41.65625 -9.375 C 44.070312 -10.800781 46.015625 -12.820312 47.484375 -15.4375 C 48.953125 -18.050781 49.6875 -21.144531 49.6875 -24.71875 Z M 49.6875 -24.71875 "/></g></g></g><g fill="#000000" fill-opacity="1"><g transform="translate(666.379195, 245.078286)"><g><path d="M 7.484375 0 L 7.484375 -49.5 L 17.96875 -49.5 L 17.96875 0 Z M 12.84375 -66.453125 C 10.957031 -66.453125 9.335938 -67.125 7.984375 -68.46875 C 6.640625 -69.8125 5.96875 -71.429688 5.96875 -73.328125 C 5.96875 -75.210938 6.640625 -76.835938 7.984375 -78.203125 C 9.335938 -79.566406 10.957031 -80.25 12.84375 -80.25 C 14.09375 -80.25 15.25 -79.925781 16.3125 -79.28125 C 17.375 -78.644531 18.226562 -77.8125 18.875 -76.78125 C 19.519531 -75.757812 19.84375 -74.609375 19.84375 -73.328125 C 19.84375 -71.429688 19.15625 -69.8125 17.78125 -68.46875 C 16.414062 -67.125 14.769531 -66.453125 12.84375 -66.453125 Z M 12.84375 -66.453125 "/></g></g></g><g fill="#000000" fill-opacity="1"><g transform="translate(694.054281, 245.078286)"><g><path d="M 12.90625 -22.609375 C 12.945312 -19.640625 13.585938 -16.925781 14.828125 -14.46875 C 16.078125 -12.019531 17.9375 -10.070312 20.40625 -8.625 C 22.882812 -7.175781 25.929688 -6.453125 29.546875 -6.453125 C 32.597656 -6.453125 35.195312 -6.90625 37.34375 -7.8125 C 39.5 -8.71875 41.257812 -9.800781 42.625 -11.0625 C 44 -12.332031 44.984375 -13.46875 45.578125 -14.46875 L 50.703125 -8.140625 C 49.378906 -6.210938 47.757812 -4.523438 45.84375 -3.078125 C 43.9375 -1.628906 41.617188 -0.515625 38.890625 0.265625 C 36.160156 1.054688 32.820312 1.453125 28.875 1.453125 C 23.570312 1.453125 18.976562 0.316406 15.09375 -1.953125 C 11.21875 -4.222656 8.234375 -7.378906 6.140625 -11.421875 C 4.054688 -15.460938 3.015625 -20.097656 3.015625 -25.328125 C 3.015625 -30.148438 4 -34.5 5.96875 -38.375 C 7.9375 -42.257812 10.800781 -45.328125 14.5625 -47.578125 C 18.320312 -49.828125 22.851562 -50.953125 28.15625 -50.953125 C 33.019531 -50.953125 37.25 -49.9375 40.84375 -47.90625 C 44.445312 -45.875 47.242188 -43.007812 49.234375 -39.3125 C 51.222656 -35.613281 52.21875 -31.191406 52.21875 -26.046875 C 52.21875 -25.722656 52.195312 -25.148438 52.15625 -24.328125 C 52.113281 -23.503906 52.070312 -22.929688 52.03125 -22.609375 Z M 42.203125 -30.515625 C 42.160156 -32.160156 41.6875 -33.96875 40.78125 -35.9375 C 39.882812 -37.90625 38.429688 -39.59375 36.421875 -41 C 34.410156 -42.40625 31.695312 -43.109375 28.28125 -43.109375 C 24.738281 -43.109375 21.890625 -42.425781 19.734375 -41.0625 C 17.585938 -39.695312 16.007812 -38.035156 15 -36.078125 C 14 -34.128906 13.421875 -32.273438 13.265625 -30.515625 Z M 42.203125 -30.515625 "/></g></g></g><g fill="#000000" fill-opacity="1"><g transform="translate(751.514751, 245.078286)"><g><path d="M 16.640625 0 L 6.203125 0 L 6.203125 -49.5 L 16.640625 -49.5 L 16.640625 -40.9375 L 16.34375 -40.9375 C 16.539062 -41.988281 17.28125 -43.296875 18.5625 -44.859375 C 19.851562 -46.429688 21.625 -47.835938 23.875 -49.078125 C 26.125 -50.328125 28.816406 -50.953125 31.953125 -50.953125 C 34.242188 -50.953125 36.265625 -50.640625 38.015625 -50.015625 C 39.765625 -49.390625 41 -48.773438 41.71875 -48.171875 L 37.4375 -39.5 C 36.875 -40.0625 35.890625 -40.632812 34.484375 -41.21875 C 33.078125 -41.800781 31.332031 -42.09375 29.25 -42.09375 C 26.59375 -42.09375 24.316406 -41.265625 22.421875 -39.609375 C 20.535156 -37.960938 19.097656 -35.984375 18.109375 -33.671875 C 17.128906 -31.359375 16.640625 -29.21875 16.640625 -27.25 Z M 16.640625 0 "/></g></g></g></svg>