<svg xmlns="http://www.w3.org/2000/svg" xmlns:xlink="http://www.w3.org/1999/xlink" width="1024" zoomAndPan="magnify" viewBox="0 0 768 767.999994" height="1024" preserveAspectRatio="xMidYMid meet" version="1.0"><defs><g/><clipPath id="fcc71d520d"><path d="M 426 249 L 577.945312 249 L 577.945312 331 L 426 331 Z M 426 249 " clip-rule="nonzero"/></clipPath><clipPath id="e1d1a2a4f4"><path d="M 383 247.644531 L 577.945312 247.644531 L 577.945312 292 L 383 292 Z M 383 247.644531 " clip-rule="nonzero"/></clipPath><clipPath id="155161c364"><path d="M 448 249 L 577.945312 249 L 577.945312 363 L 448 363 Z M 448 249 " clip-rule="nonzero"/></clipPath><clipPath id="1adf789a3b"><path d="M 190.195312 317 L 421 317 L 421 423.894531 L 190.195312 423.894531 Z M 190.195312 317 " clip-rule="nonzero"/></clipPath></defs><g clip-path="url(#fcc71d520d)"><path fill="#004aad" d="M 426.042969 330.441406 L 443.039062 291.796875 L 577.726562 249.707031 Z M 426.042969 330.441406 " fill-opacity="1" fill-rule="nonzero"/></g><path fill="#000000" d="M 448.601562 300.027344 L 426.042969 330.441406 L 544.632812 262.605469 Z M 448.601562 300.027344 " fill-opacity="1" fill-rule="nonzero"/><g clip-path="url(#e1d1a2a4f4)"><path fill="#38b6ff" d="M 443.039062 291.796875 L 577.726562 249.707031 L 383.332031 247.613281 Z M 443.039062 291.796875 " fill-opacity="1" fill-rule="nonzero"/></g><g clip-path="url(#155161c364)"><path fill="#38b6ff" d="M 448.601562 300.027344 L 577.726562 249.707031 L 461.035156 362.632812 Z M 448.601562 300.027344 " fill-opacity="1" fill-rule="nonzero"/></g><path fill="#38b6ff" d="M 448.601562 300.027344 L 426.042969 330.441406 L 451.90625 316.675781 Z M 448.601562 300.027344 " fill-opacity="1" fill-rule="nonzero"/><path fill="#38b6ff" d="M 421.542969 301.316406 L 274.984375 354.878906 L 418.367188 293.320312 C 420.550781 292.382812 423.082031 293.394531 424.015625 295.578125 C 424.953125 297.761719 423.945312 300.292969 421.761719 301.230469 C 421.691406 301.257812 421.609375 301.292969 421.542969 301.316406 " fill-opacity="1" fill-rule="nonzero"/><path fill="#38b6ff" d="M 442.15625 345.636719 L 295.605469 399.199219 L 438.984375 337.640625 C 441.167969 336.703125 443.695312 337.714844 444.636719 339.894531 C 445.574219 342.082031 444.5625 344.609375 442.378906 345.550781 C 442.308594 345.578125 442.226562 345.609375 442.15625 345.636719 " fill-opacity="1" fill-rule="nonzero"/><g clip-path="url(#1adf789a3b)"><path fill="#38b6ff" d="M 417.613281 325.96875 L 190.273438 423.964844 L 414.066406 318.128906 C 416.214844 317.113281 418.78125 318.027344 419.796875 320.179688 C 420.8125 322.324219 419.894531 324.890625 417.746094 325.90625 C 417.707031 325.925781 417.648438 325.949219 417.613281 325.96875 " fill-opacity="1" fill-rule="nonzero"/></g><g fill="#000000" fill-opacity="1"><g transform="translate(69.884766, 505.73519)"><g><path d="M 64.265625 5.1875 C 66.597656 5.1875 68.578125 4.925781 70.203125 4.40625 C 71.835938 3.882812 73.113281 3.347656 74.03125 2.796875 C 74.957031 2.253906 75.460938 1.90625 75.546875 1.75 L 78.625 6.03125 C 77.78125 6.675781 76.191406 7.539062 73.859375 8.625 C 71.523438 9.71875 68.226562 10.265625 63.96875 10.265625 C 61.3125 10.265625 58.992188 9.976562 57.015625 9.40625 C 55.046875 8.84375 53.226562 8.179688 51.5625 7.421875 C 49.894531 6.660156 48.175781 6 46.40625 5.4375 C 44.632812 4.875 42.625 4.59375 40.375 4.59375 C 37.914062 4.59375 35.691406 5.0625 33.703125 6 C 31.710938 6.945312 30.113281 7.898438 28.90625 8.859375 C 27.695312 9.828125 27.03125 10.394531 26.90625 10.5625 L 23.46875 6.703125 C 26.082031 4.648438 28.707031 3 31.34375 1.75 C 33.976562 0.5 37.148438 -0.125 40.859375 -0.125 C 43.828125 -0.125 46.53125 0.316406 48.96875 1.203125 C 51.40625 2.085938 53.828125 2.972656 56.234375 3.859375 C 58.648438 4.742188 61.328125 5.1875 64.265625 5.1875 Z M 7.96875 -39.890625 C 7.96875 -33.003906 9.414062 -26.816406 12.3125 -21.328125 C 15.207031 -15.835938 19.1875 -11.492188 24.25 -8.296875 C 29.320312 -5.097656 35.097656 -3.5 41.578125 -3.5 C 48.097656 -3.5 53.867188 -5.097656 58.890625 -8.296875 C 63.921875 -11.492188 67.875 -15.835938 70.75 -21.328125 C 73.625 -26.816406 75.0625 -33.003906 75.0625 -39.890625 C 75.0625 -46.765625 73.625 -52.9375 70.75 -58.40625 C 67.875 -63.882812 63.921875 -68.210938 58.890625 -71.390625 C 53.867188 -74.566406 48.097656 -76.15625 41.578125 -76.15625 C 35.097656 -76.15625 29.320312 -74.566406 24.25 -71.390625 C 19.1875 -68.210938 15.207031 -63.882812 12.3125 -58.40625 C 9.414062 -52.9375 7.96875 -46.765625 7.96875 -39.890625 Z M 2.84375 -39.890625 C 2.84375 -45.679688 3.816406 -51.082031 5.765625 -56.09375 C 7.710938 -61.101562 10.4375 -65.476562 13.9375 -69.21875 C 17.4375 -72.957031 21.539062 -75.875 26.25 -77.96875 C 30.957031 -80.0625 36.066406 -81.109375 41.578125 -81.109375 C 47.128906 -81.109375 52.238281 -80.0625 56.90625 -77.96875 C 61.570312 -75.875 65.65625 -72.957031 69.15625 -69.21875 C 72.65625 -65.476562 75.359375 -61.101562 77.265625 -56.09375 C 79.179688 -51.082031 80.140625 -45.679688 80.140625 -39.890625 C 80.140625 -34.054688 79.179688 -28.632812 77.265625 -23.625 C 75.359375 -18.613281 72.65625 -14.226562 69.15625 -10.46875 C 65.65625 -6.707031 61.570312 -3.78125 56.90625 -1.6875 C 52.238281 0.40625 47.128906 1.453125 41.578125 1.453125 C 36.023438 1.453125 30.894531 0.40625 26.1875 -1.6875 C 21.476562 -3.78125 17.382812 -6.707031 13.90625 -10.46875 C 10.425781 -14.226562 7.710938 -18.613281 5.765625 -23.625 C 3.816406 -28.632812 2.84375 -34.054688 2.84375 -39.890625 Z M 2.84375 -39.890625 "/></g></g></g><g fill="#000000" fill-opacity="1"><g transform="translate(153.515816, 505.73519)"><g><path d="M 11.890625 -23.171875 C 11.890625 -17.097656 13.242188 -12.28125 15.953125 -8.71875 C 18.671875 -5.15625 22.75 -3.375 28.1875 -3.375 C 33.613281 -3.375 37.679688 -5.15625 40.390625 -8.71875 C 43.109375 -12.28125 44.46875 -17.097656 44.46875 -23.171875 L 44.46875 -49.546875 L 49.546875 -49.546875 L 49.546875 -22.078125 C 49.546875 -17.578125 48.707031 -13.546875 47.03125 -9.984375 C 45.363281 -6.421875 42.953125 -3.625 39.796875 -1.59375 C 36.640625 0.4375 32.769531 1.453125 28.1875 1.453125 C 23.632812 1.453125 19.769531 0.4375 16.59375 -1.59375 C 13.414062 -3.625 10.988281 -6.421875 9.3125 -9.984375 C 7.644531 -13.546875 6.8125 -17.578125 6.8125 -22.078125 L 6.8125 -49.546875 L 11.890625 -49.546875 Z M 11.890625 -23.171875 "/></g></g></g><g fill="#000000" fill-opacity="1"><g transform="translate(212.22651, 505.73519)"><g><path d="M 47.96875 0 L 47.96875 -10.734375 C 47.726562 -9.648438 46.800781 -8.125 45.1875 -6.15625 C 43.582031 -4.1875 41.351562 -2.425781 38.5 -0.875 C 35.644531 0.675781 32.242188 1.453125 28.296875 1.453125 C 23.867188 1.453125 19.765625 0.4375 15.984375 -1.59375 C 12.203125 -3.625 9.15625 -6.597656 6.84375 -10.515625 C 4.53125 -14.441406 3.375 -19.179688 3.375 -24.734375 C 3.375 -30.285156 4.53125 -35.019531 6.84375 -38.9375 C 9.15625 -42.863281 12.203125 -45.851562 15.984375 -47.90625 C 19.765625 -49.957031 23.867188 -50.984375 28.296875 -50.984375 C 32.203125 -50.984375 35.59375 -50.226562 38.46875 -48.71875 C 41.34375 -47.21875 43.601562 -45.507812 45.25 -43.59375 C 46.90625 -41.6875 47.8125 -40.085938 47.96875 -38.796875 L 47.96875 -49.546875 L 52.921875 -49.546875 L 52.921875 0 Z M 8.453125 -24.734375 C 8.453125 -20.273438 9.414062 -16.4375 11.34375 -13.21875 C 13.269531 -10 15.757812 -7.539062 18.8125 -5.84375 C 21.875 -4.15625 25.078125 -3.3125 28.421875 -3.3125 C 32.117188 -3.3125 35.414062 -4.175781 38.3125 -5.90625 C 41.207031 -7.644531 43.5 -10.117188 45.1875 -13.328125 C 46.882812 -16.546875 47.734375 -20.347656 47.734375 -24.734375 C 47.734375 -29.117188 46.882812 -32.921875 45.1875 -36.140625 C 43.5 -39.359375 41.207031 -41.84375 38.3125 -43.59375 C 35.414062 -45.34375 32.117188 -46.21875 28.421875 -46.21875 C 25.078125 -46.21875 21.875 -45.363281 18.8125 -43.65625 C 15.757812 -41.945312 13.269531 -39.484375 11.34375 -36.265625 C 9.414062 -33.046875 8.453125 -29.203125 8.453125 -24.734375 Z M 8.453125 -24.734375 "/></g></g></g><g fill="#000000" fill-opacity="1"><g transform="translate(273.652487, 505.73519)"><g><path d="M 30.53125 -50.984375 C 33.59375 -50.984375 36.59375 -50.316406 39.53125 -48.984375 C 42.46875 -47.660156 44.878906 -45.550781 46.765625 -42.65625 C 48.660156 -39.757812 49.609375 -36 49.609375 -31.375 L 49.609375 0 L 44.40625 0 L 44.40625 -29.984375 C 44.40625 -35.859375 43.035156 -40.050781 40.296875 -42.5625 C 37.566406 -45.082031 34.113281 -46.34375 29.9375 -46.34375 C 27.113281 -46.34375 24.40625 -45.523438 21.8125 -43.890625 C 19.21875 -42.265625 17.078125 -40.050781 15.390625 -37.25 C 13.703125 -34.457031 12.859375 -31.332031 12.859375 -27.875 L 12.859375 0 L 7.78125 0 L 7.78125 -49.546875 L 12.859375 -49.546875 L 12.859375 -39.640625 C 13.097656 -41.085938 14.039062 -42.695312 15.6875 -44.46875 C 17.332031 -46.238281 19.453125 -47.765625 22.046875 -49.046875 C 24.648438 -50.335938 27.476562 -50.984375 30.53125 -50.984375 Z M 30.53125 -50.984375 "/></g></g></g><g fill="#000000" fill-opacity="1"><g transform="translate(331.940791, 505.73519)"><g><path d="M 3.015625 -49.546875 L 13.640625 -49.546875 L 13.640625 -69.875 L 18.640625 -69.875 L 18.640625 -49.546875 L 32.53125 -49.546875 L 32.53125 -44.71875 L 18.640625 -44.71875 L 18.640625 -12.90625 C 18.640625 -9.375 19.289062 -6.898438 20.59375 -5.484375 C 21.90625 -4.078125 23.488281 -3.375 25.34375 -3.375 C 27.15625 -3.375 28.515625 -3.6875 29.421875 -4.3125 C 30.328125 -4.9375 30.859375 -5.347656 31.015625 -5.546875 L 33.734375 -1.515625 C 33.492188 -1.304688 33 -0.960938 32.25 -0.484375 C 31.507812 -0.00390625 30.523438 0.4375 29.296875 0.84375 C 28.066406 1.25 26.546875 1.453125 24.734375 1.453125 C 21.640625 1.453125 19.015625 0.425781 16.859375 -1.625 C 14.710938 -3.675781 13.640625 -7 13.640625 -11.59375 L 13.640625 -44.71875 L 3.015625 -44.71875 Z M 3.015625 -49.546875 "/></g></g></g><g fill="#000000" fill-opacity="1"><g transform="translate(369.240224, 505.73519)"><g><path d="M 45.3125 -8.75 C 50.257812 -8.75 54.550781 -9.429688 58.1875 -10.796875 C 61.832031 -12.171875 64.421875 -13.5 65.953125 -14.78125 L 70.484375 -5.90625 C 68.671875 -4.300781 65.519531 -2.671875 61.03125 -1.015625 C 56.550781 0.628906 51.171875 1.453125 44.890625 1.453125 C 39.015625 1.453125 33.5625 0.40625 28.53125 -1.6875 C 23.507812 -3.78125 19.117188 -6.695312 15.359375 -10.4375 C 11.597656 -14.175781 8.660156 -18.539062 6.546875 -23.53125 C 4.429688 -28.519531 3.375 -33.910156 3.375 -39.703125 C 3.375 -45.492188 4.421875 -50.90625 6.515625 -55.9375 C 8.609375 -60.96875 11.535156 -65.363281 15.296875 -69.125 C 19.054688 -72.882812 23.457031 -75.820312 28.5 -77.9375 C 33.550781 -80.050781 39.015625 -81.109375 44.890625 -81.109375 C 51.171875 -81.109375 56.550781 -80.28125 61.03125 -78.625 C 65.519531 -76.976562 68.671875 -75.347656 70.484375 -73.734375 L 65.953125 -64.875 C 64.421875 -66.195312 61.832031 -67.53125 58.1875 -68.875 C 54.550781 -70.226562 50.257812 -70.90625 45.3125 -70.90625 C 40.8125 -70.90625 36.6875 -70.140625 32.9375 -68.609375 C 29.195312 -67.078125 25.945312 -64.914062 23.1875 -62.125 C 20.4375 -59.332031 18.304688 -56.039062 16.796875 -52.25 C 15.296875 -48.46875 14.546875 -44.347656 14.546875 -39.890625 C 14.546875 -35.378906 15.296875 -31.222656 16.796875 -27.421875 C 18.304688 -23.617188 20.4375 -20.320312 23.1875 -17.53125 C 25.945312 -14.738281 29.195312 -12.578125 32.9375 -11.046875 C 36.6875 -9.515625 40.8125 -8.75 45.3125 -8.75 Z M 45.3125 -8.75 "/></g></g></g><g fill="#000000" fill-opacity="1"><g transform="translate(445.449471, 505.73519)"><g><path d="M 29.265625 1.453125 C 24.160156 1.453125 19.625 0.304688 15.65625 -1.984375 C 11.695312 -4.285156 8.585938 -7.394531 6.328125 -11.3125 C 4.078125 -15.238281 2.953125 -19.675781 2.953125 -24.625 C 2.953125 -29.570312 4.078125 -34.035156 6.328125 -38.015625 C 8.585938 -41.992188 11.695312 -45.148438 15.65625 -47.484375 C 19.625 -49.816406 24.160156 -50.984375 29.265625 -50.984375 C 34.335938 -50.984375 38.832031 -49.816406 42.75 -47.484375 C 46.675781 -45.148438 49.742188 -41.992188 51.953125 -38.015625 C 54.171875 -34.035156 55.28125 -29.570312 55.28125 -24.625 C 55.28125 -19.675781 54.171875 -15.238281 51.953125 -11.3125 C 49.742188 -7.394531 46.675781 -4.285156 42.75 -1.984375 C 38.832031 0.304688 34.335938 1.453125 29.265625 1.453125 Z M 29.265625 -7.546875 C 32.484375 -7.546875 35.289062 -8.289062 37.6875 -9.78125 C 40.082031 -11.269531 41.941406 -13.3125 43.265625 -15.90625 C 44.585938 -18.5 45.25 -21.425781 45.25 -24.6875 C 45.25 -27.9375 44.585938 -30.867188 43.265625 -33.484375 C 41.941406 -36.097656 40.082031 -38.171875 37.6875 -39.703125 C 35.289062 -41.234375 32.484375 -42 29.265625 -42 C 26.003906 -42 23.164062 -41.234375 20.75 -39.703125 C 18.34375 -38.171875 16.460938 -36.097656 15.109375 -33.484375 C 13.765625 -30.867188 13.09375 -27.9375 13.09375 -24.6875 C 13.09375 -21.425781 13.765625 -18.5 15.109375 -15.90625 C 16.460938 -13.3125 18.34375 -11.269531 20.75 -9.78125 C 23.164062 -8.289062 26.003906 -7.546875 29.265625 -7.546875 Z M 29.265625 -7.546875 "/></g></g></g><g fill="#000000" fill-opacity="1"><g transform="translate(505.970357, 505.73519)"><g><path d="M 16.953125 25.109375 L 6.515625 25.109375 L 6.515625 -49.546875 L 17.140625 -49.546875 L 17.140625 -40.25 C 17.503906 -41.5 18.507812 -42.96875 20.15625 -44.65625 C 21.800781 -46.34375 24.019531 -47.816406 26.8125 -49.078125 C 29.613281 -50.347656 32.828125 -50.984375 36.453125 -50.984375 C 41.035156 -50.984375 45.101562 -49.882812 48.65625 -47.6875 C 52.21875 -45.5 55.015625 -42.441406 57.046875 -38.515625 C 59.085938 -34.597656 60.109375 -30.003906 60.109375 -24.734375 C 60.109375 -19.460938 59.0625 -14.863281 56.96875 -10.9375 C 54.875 -7.019531 52.023438 -3.972656 48.421875 -1.796875 C 44.828125 0.367188 40.710938 1.453125 36.078125 1.453125 C 32.335938 1.453125 29.066406 0.75 26.265625 -0.65625 C 23.472656 -2.070312 21.28125 -3.664062 19.6875 -5.4375 C 18.101562 -7.207031 17.191406 -8.613281 16.953125 -9.65625 Z M 49.71875 -24.734375 C 49.71875 -28.316406 48.984375 -31.414062 47.515625 -34.03125 C 46.046875 -36.644531 44.101562 -38.675781 41.6875 -40.125 C 39.28125 -41.570312 36.671875 -42.296875 33.859375 -42.296875 C 30.753906 -42.296875 27.9375 -41.5625 25.40625 -40.09375 C 22.875 -38.625 20.863281 -36.570312 19.375 -33.9375 C 17.882812 -31.300781 17.140625 -28.234375 17.140625 -24.734375 C 17.140625 -21.234375 17.882812 -18.164062 19.375 -15.53125 C 20.863281 -12.90625 22.875 -10.863281 25.40625 -9.40625 C 27.9375 -7.957031 30.753906 -7.234375 33.859375 -7.234375 C 36.671875 -7.234375 39.28125 -7.945312 41.6875 -9.375 C 44.101562 -10.8125 46.046875 -12.835938 47.515625 -15.453125 C 48.984375 -18.066406 49.71875 -21.160156 49.71875 -24.734375 Z M 49.71875 -24.734375 "/></g></g></g><g fill="#000000" fill-opacity="1"><g transform="translate(570.654696, 505.73519)"><g><path d="M 7.484375 0 L 7.484375 -49.546875 L 17.984375 -49.546875 L 17.984375 0 Z M 12.859375 -66.5 C 10.960938 -66.5 9.335938 -67.171875 7.984375 -68.515625 C 6.640625 -69.867188 5.96875 -71.488281 5.96875 -73.375 C 5.96875 -75.269531 6.640625 -76.898438 7.984375 -78.265625 C 9.335938 -79.628906 10.960938 -80.3125 12.859375 -80.3125 C 14.097656 -80.3125 15.25 -79.988281 16.3125 -79.34375 C 17.382812 -78.707031 18.242188 -77.875 18.890625 -76.84375 C 19.535156 -75.820312 19.859375 -74.664062 19.859375 -73.375 C 19.859375 -71.488281 19.171875 -69.867188 17.796875 -68.515625 C 16.429688 -67.171875 14.785156 -66.5 12.859375 -66.5 Z M 12.859375 -66.5 "/></g></g></g><g fill="#000000" fill-opacity="1"><g transform="translate(598.350701, 505.73519)"><g><path d="M 12.90625 -22.625 C 12.945312 -19.644531 13.59375 -16.925781 14.84375 -14.46875 C 16.09375 -12.019531 17.953125 -10.070312 20.421875 -8.625 C 22.898438 -7.175781 25.945312 -6.453125 29.5625 -6.453125 C 32.625 -6.453125 35.226562 -6.90625 37.375 -7.8125 C 39.53125 -8.71875 41.289062 -9.800781 42.65625 -11.0625 C 44.03125 -12.332031 45.019531 -13.472656 45.625 -14.484375 L 50.75 -8.140625 C 49.414062 -6.210938 47.796875 -4.523438 45.890625 -3.078125 C 43.984375 -1.628906 41.660156 -0.515625 38.921875 0.265625 C 36.179688 1.054688 32.84375 1.453125 28.90625 1.453125 C 23.59375 1.453125 18.992188 0.316406 15.109375 -1.953125 C 11.234375 -4.234375 8.25 -7.394531 6.15625 -11.4375 C 4.0625 -15.476562 3.015625 -20.113281 3.015625 -25.34375 C 3.015625 -30.164062 4 -34.519531 5.96875 -38.40625 C 7.945312 -42.289062 10.816406 -45.359375 14.578125 -47.609375 C 18.335938 -49.859375 22.875 -50.984375 28.1875 -50.984375 C 33.050781 -50.984375 37.28125 -49.96875 40.875 -47.9375 C 44.476562 -45.90625 47.273438 -43.039062 49.265625 -39.34375 C 51.253906 -35.644531 52.25 -31.21875 52.25 -26.0625 C 52.25 -25.738281 52.226562 -25.164062 52.1875 -24.34375 C 52.15625 -23.519531 52.117188 -22.945312 52.078125 -22.625 Z M 42.234375 -30.53125 C 42.203125 -32.1875 41.734375 -34 40.828125 -35.96875 C 39.921875 -37.9375 38.460938 -39.625 36.453125 -41.03125 C 34.441406 -42.4375 31.722656 -43.140625 28.296875 -43.140625 C 24.753906 -43.140625 21.90625 -42.457031 19.75 -41.09375 C 17.601562 -39.726562 16.023438 -38.066406 15.015625 -36.109375 C 14.015625 -34.160156 13.4375 -32.300781 13.28125 -30.53125 Z M 42.234375 -30.53125 "/></g></g></g><g fill="#000000" fill-opacity="1"><g transform="translate(655.854605, 505.73519)"><g><path d="M 16.65625 0 L 6.21875 0 L 6.21875 -49.546875 L 16.65625 -49.546875 L 16.65625 -40.96875 L 16.359375 -40.96875 C 16.554688 -42.019531 17.296875 -43.328125 18.578125 -44.890625 C 19.867188 -46.460938 21.640625 -47.867188 23.890625 -49.109375 C 26.148438 -50.359375 28.847656 -50.984375 31.984375 -50.984375 C 34.273438 -50.984375 36.296875 -50.671875 38.046875 -50.046875 C 39.796875 -49.429688 41.035156 -48.820312 41.765625 -48.21875 L 37.46875 -39.53125 C 36.90625 -40.09375 35.921875 -40.664062 34.515625 -41.25 C 33.109375 -41.832031 31.359375 -42.125 29.265625 -42.125 C 26.609375 -42.125 24.332031 -41.296875 22.4375 -39.640625 C 20.550781 -37.992188 19.113281 -36.015625 18.125 -33.703125 C 17.144531 -31.390625 16.65625 -29.25 16.65625 -27.28125 Z M 16.65625 0 "/></g></g></g></svg>